/* XPM */
static char *_9fbd07a03a948a08f97968f4f4f50d4x4rgxeXLVLLU2JSz[] = {
/* columns rows colors chars-per-pixel */
"55 75 187 2 ",
"   c None",
".  c #020100",
"X  c #18323B",
"o  c #16414C",
"O  c #1E4959",
"+  c #23465E",
"@  c #314D5D",
"#  c #1C547E",
"$  c #254B67",
"%  c #2C516B",
"&  c #2C5673",
"*  c #2F5875",
"=  c #2F5B7C",
"-  c #215375",
";  c #305877",
":  c #335E7C",
">  c #375A72",
",  c #2F637F",
"<  c #35607D",
"1  c #3C617B",
"2  c #546C6F",
"3  c #476479",
"4  c #295D85",
"5  c #255A80",
"6  c #315F80",
"7  c #1D7184",
"8  c #26608B",
"9  c #366485",
"0  c #3E6582",
"q  c #37678A",
"w  c #386789",
"e  c #35688C",
"r  c #3B6A8D",
"t  c #31708B",
"y  c #2C6792",
"u  c #3B6E93",
"i  c #316994",
"p  c #3E7195",
"a  c #3C729A",
"s  c #36709B",
"d  c #3D77A3",
"f  c #446983",
"g  c #4A6C82",
"h  c #436D8A",
"j  c #416685",
"k  c #47708C",
"l  c #5E7685",
"z  c #5F7887",
"x  c #57788B",
"c  c #447292",
"v  c #4B7595",
"b  c #43769C",
"n  c #4A7A9D",
"m  c #49789A",
"M  c #557A91",
"N  c #5B7B90",
"B  c #517D9D",
"V  c #537690",
"C  c #607886",
"Z  c #667F8C",
"A  c #437BA5",
"S  c #4B7DA3",
"D  c #447EAB",
"F  c #5E808D",
"G  c #5C829C",
"H  c #648495",
"J  c #6D8593",
"K  c #62859D",
"L  c #6F8B9F",
"P  c #738A96",
"I  c #758B97",
"U  c #78939E",
"Y  c #4680AE",
"T  c #4A82AD",
"R  c #4D80A5",
"E  c #5482A3",
"W  c #5C86A3",
"Q  c #5384AA",
"!  c #5C8AAC",
"~  c #5989AB",
"^  c #4683B2",
"/  c #4A86B4",
"(  c #4C88B6",
")  c #4D8AB9",
"_  c #548AB4",
"`  c #5A8DB4",
"'  c #528DBA",
"]  c #588FB8",
"[  c #5690BD",
"{  c #5B93BD",
"}  c #5F9CB8",
"|  c #6187A3",
" . c #678CA5",
".. c #6B8CA1",
"X. c #648EAE",
"o. c #6A8FA9",
"O. c #6E93AD",
"+. c #6693AF",
"@. c #7D94A3",
"#. c #7296AC",
"$. c #7F99A9",
"%. c #7797A9",
"&. c #608FB2",
"*. c #6492B4",
"=. c #6A95B3",
"-. c #6296BE",
";. c #6499BF",
":. c #699BBE",
">. c #7499B4",
",. c #779EB8",
"<. c #41A4BC",
"1. c #77A2BE",
"2. c #7CA3BF",
"3. c #5792C0",
"4. c #5D96C2",
"5. c #5E98C5",
"6. c #6197C1",
"7. c #659AC3",
"8. c #6A9DC5",
"9. c #709FC3",
"0. c #6DA0C6",
"q. c #6EA1C9",
"w. c #72A3C2",
"e. c #73A5CB",
"r. c #7DAACC",
"t. c #79A5C7",
"y. c #7CABD0",
"u. c #5FD1EA",
"i. c #82959F",
"p. c #839AA7",
"a. c #8B9DAA",
"s. c #829EA9",
"d. c #86A2AC",
"f. c #91A4AF",
"g. c #81A5BB",
"h. c #82A7B6",
"j. c #93A7B2",
"k. c #9BAFB9",
"l. c #A4B5BE",
"z. c #84ADCC",
"x. c #88ACC6",
"c. c #8CB3CD",
"v. c #94B5CD",
"b. c #82AED1",
"n. c #86B1D3",
"m. c #8BB4D4",
"M. c #94BAD6",
"N. c #9BBCD4",
"B. c #9ABEDB",
"V. c #91B7D3",
"C. c #AEBEC5",
"Z. c #A4B8C1",
"A. c #A0BFD5",
"S. c #9DC1DD",
"D. c #AEC4CA",
"F. c #B5C3CA",
"G. c #BBC7CE",
"H. c #B7C8CF",
"J. c #B9C8CF",
"K. c #A4C0D4",
"L. c #A3C4DC",
"P. c #BDCCD3",
"I. c #B4CDDD",
"U. c #B7CBD1",
"Y. c #B9D0DF",
"T. c #A4C6E1",
"R. c #BCD2E0",
"E. c #C2CED3",
"W. c #CBD6DB",
"Q. c #CCD9DE",
"!. c #C5D2D7",
"~. c #CEDCE2",
"^. c #CEDDE8",
"/. c #D2DEE2",
"(. c #D1DFE8",
"). c #D6E1E5",
"_. c #DAE3E6",
"`. c #D6E3E9",
"'. c #DDE6EA",
"]. c #DEE9EC",
"[. c #E3EBEE",
"{. c #E8EEEF",
"}. c #E6EEF1",
"|. c #E8EFF1",
" X c #E7F0F5",
".X c #EAF1F3",
"XX c #F1F6F8",
/* pixels */
"                                                                                                              ",
"                                                                                                              ",
"                                                                                                              ",
"                                                                3 V | X.=.*.! E c :                           ",
"                                                          f #.t.b.y.7.[ ' ) ' ' ' ( A u %                     ",
"                                                      f >.N.m.e.6.) ^ / / / / / ( ( / / D :                   ",
"                                                  0 ,.B.n.7.{ ' ( ( ( ( ) { 4.' ( ( / Y Y ^ q                 ",
"                                              & #.B.n.7.] ) ( / ( ( ( / S S { 8.{ ( ( / D D ^ q               ",
"                                            h v.B.e.{ _ / ( / ( ( ) A 9 : e e Q 0.[ ( / Y D Y ^ :             ",
"                                          W L.n.4.' / ( ( ( ( ( ( ( r ; } h.X , 4.{ ( / Y D A Y D $           ",
"                                        o.T.e.{ ' / ( / ^ Y ^ ( ' D ; H u.2 . O { { ( ( ^ Y Y D -.m           ",
"                                    $ ,.L.8.4.( ( / ^ D D D T ( ( ^ q z <.7 o e / ) ( ^ d u w q c c +         ",
"                                  $ x.B.8.] ( ( / D D D D D / ( ( / ` | S A D ^ ( ( ) 8.>.E d Y A A a <       ",
"                                  >.B.7.3.( / ^ D D D D D Y ( ( ( / ] 9.( / / ( ( ) b.V.7.[ ) ) [ 3.5.) &     ",
"                                O.L.8.{ ( ( Y D D D D D D / ( ( / / 6.t.3 c R D d d T Y Y / ^ ^ ] *.S W J     ",
"                               .T.8.{ ( / D D D D D D Y / ( ( ( / n.]./.I G.W.!.F.k.$...G G G ..%.j.F.).].l   ",
"                            f S.e.4.( / D D D D D D D / / ( ( / -.`..X'.F..X[.`.{..X{.[.[.'.).'.[.|.[.`.j.    ",
"                        h 9 x.b.4._ / D D D D D D D / ( ( ( ( ^ z.[.[.[.[._.Q.W.W.Q./.)./././.'..X`.C.U       ",
"                    f &._ #.M.6.' / D D D D D D D / ( ( ( ( ( ^ N.{.[.[./.Q.Q.Q.Q.Q.Q././.[.}._.l.I           ",
"                  3 9.6.B v.e.{ / D D D D D D D / ( / ( ( ( / ( Y.{.[.[.[.[.].[.[.[.[.[.|./.l.J               ",
"                > 2.5.A O.n.-.( D D D D D D D ( ( ( ( ( ( ( ( 8.[.|..X[.}.[.[.}.[.[.{._.k.Z                   ",
"                | e.( v v.0.' ^ D D D D D ^ ( ( ( ( ( ( ( A p v L @.J.[.[.[.{.[.[.[.E.H +                     ",
"                2.] a  .m.{ / D D D D D T ( ( ( ( ( ) T r w a Y ' ! N _.[.[.[.'.`.F.f # -                     ",
"              % h * % v.0.( D D D D D / ( ( ( ( / ( A 9 A ( { 8.6._ p.[.[.[.~.).l.1 4 d s                     ",
"                    N m.{ / D D D D / ( ( ( ( ( ) A 9 D ) ' 7.7.w.! l.XX}._./.C.< y / 6.7.9                   ",
"                    %.y.' Y D D D ^ ( ( ( ( / ) ^ 9 D ' ( { 8.7.c.G W..X}.'.P.g y ( ( { n.G                   ",
"                    x.7./ D D D D ( ( ( ( ( ( / w A ' ( [ 7.7.q.o.j..X[.}._.Z = ) ( / { y.X.                  ",
"                    z.[ ^ D D D ^ ( ( ( ( ( ) u u ( ( ' 6.0.4.a H '.}.[.|.F.@ 4 ) ( ( ' e.E                   ",
"                  N r./ Y D D Y ( ( ( ( ) ( r c ) ( { 7.7.[ s N ).}.[. X].J     w ) ( ' 7.r                   ",
"                  ..e./ D D D ^ ( ( ) / A w u ( ' { 7.6./ u H W..X[..X|.j.        u ) [ { &                   ",
"                  O.7.^ D D D / ( ( S q w D ' ' { 6.( a h s._.|.[.|.].a.          % ^ 5.S                     ",
"                  >.4.^ D D D / ( / = b ' ) ' ' D u k U J.}.|.[..X(.P               S z.:                     ",
"                  >.] ^ D D D ( ) ^ 4 & e u r k M s.H.]..X}.}.XXE.C                 : 0                       ",
"                  =.3.D D D / ( ) ) d i 4 w d.F.Q.].}.}.}.}..XC.3                                             ",
"                  =.' D D D ^ ( ( ( ( ^ ( I..X{.|.}.[.}..X`.@.                                                ",
"                  =.' D D D ( ( ( ( ( ^ N..X[.[.'.'.[.}.H.z                                                   ",
"                  *.' Y D D ( ( ( ( ^ z.[._.Q.Q.Q./.W.p.                                                      ",
"                  *.' D D D ( ( ( ^ { `.[.Q.W.Q.).P.J                                                         ",
"                  *.' ^ D D ( ( ( / L.|./.Q.Q.(.Z.3                                                           ",
"                  ` ' D D ^ ( ( ^ :.[.'.Q.Q./.s.                                                              ",
"                  ! ] D D ^ ( ( ( I.[.Q.).!.P                                                                 ",
"                  E 3.^ D ^ / / 0.[.)./.J.l                                                                   ",
"                  B [ ^ D ^ ( / K.[.).H.z                                                                     ",
"                  h 3.T D T / ] ~.].P.z                                                                       ",
"                  j [ ^ D T ^ r.}.).P                                                                         ",
"                    _ ( D ^ ^ A.XXC.                                                                          ",
"                    _ / D ^ ( Y.XXa.                                                                          ",
"                    R ) D Y ' ^.[.                                                                            ",
"                    m ' D Y { ].).                                                                            ",
"                    9 ( D Y 6.}.E.                                                                            ",
"                    * / ^ D 7.}.C.                                                                            ",
"                      D ^ Y 6.}.j.                                                                            ",
"                      p / D [ `.i.                                                                            ",
"                      q / D ) A.                                                                              ",
"                      ; ^ ^ ) !                                                                               ",
"                        a ) ) u                                                                               ",
"                        w [ ) r                                                                               ",
"                      %.G Y Y  .h.#.x                                                                         ",
"                  F h.c.1.k p ` ;.7.:.+.F                                                                     ",
"                H 1.6.) ( ^ T ( ( ' ' [ [ A *                                                                 ",
"              G w.0.{ { ( ( ( ( { 6.7.6.{ 3.^ 9                                                               ",
"            x 1.n.r.7.) ( ( ( ( ( ( ( ' { { 4._ 9                                                             ",
"            +.m.r.[ ( ( ( ( { [ / ' ) ^ / ( ' 4./                                                             ",
"          G y.e.) ( ( ( ( ' 0.0.{ 8.M.b.8.) / ' 6.n                                                           ",
"          { r.) / ( ( / ' 8.c E 8.7.7.:.*._ { [ ' ] :                                                         ",
"        p q.{ / ( ) ' 7.6.m                 1 B 4.5.m                                                         ",
"        T { ( [ 4.{ ` B                         c 8.&.                                                        ",
"      q { ' [ Q m                                 0 c                                                         ",
"      m 4.{ m                                                                                                 ",
"      T 5.S                                                                                                   ",
"      _ _                                                                                                     ",
"      q.v                                                                                                     ",
"      W                                                                                                       ",
"                                                                                                              ",
"                                                                                                              "
};
