/* XPM */
static char *_dfce352fb484750b2374fddef2ef66fAOZbXXCo5ZgnbM9j[] = {
/* columns rows colors chars-per-pixel */
"55 75 187 2 ",
"   c None",
".  c #020100",
"X  c #18323B",
"o  c #16414C",
"O  c #1E4959",
"+  c #23465E",
"@  c #314D5D",
"#  c #1C547E",
"$  c #254B67",
"%  c #2C516B",
"&  c #2C5673",
"*  c #2F5875",
"=  c #2F5B7C",
"-  c #215375",
";  c #305877",
":  c #335E7C",
">  c #375A72",
",  c #2F637F",
"<  c #35607D",
"1  c #3C617B",
"2  c #546C6F",
"3  c #476479",
"4  c #295D85",
"5  c #255A80",
"6  c #315F80",
"7  c #1D7184",
"8  c #26608B",
"9  c #366485",
"0  c #3E6582",
"q  c #37678A",
"w  c #386789",
"e  c #35688C",
"r  c #3B6A8D",
"t  c #31708B",
"y  c #2C6792",
"u  c #3B6E93",
"i  c #316994",
"p  c #3E7195",
"a  c #3C729A",
"s  c #36709B",
"d  c #3D77A3",
"f  c #446983",
"g  c #4A6C82",
"h  c #436D8A",
"j  c #416685",
"k  c #47708C",
"l  c #5E7685",
"z  c #5F7887",
"x  c #57788B",
"c  c #447292",
"v  c #4B7595",
"b  c #43769C",
"n  c #4A7A9D",
"m  c #49789A",
"M  c #557A91",
"N  c #5B7B90",
"B  c #517D9D",
"V  c #537690",
"C  c #607886",
"Z  c #667F8C",
"A  c #437BA5",
"S  c #4B7DA3",
"D  c #447EAB",
"F  c #5E808D",
"G  c #5C829C",
"H  c #648495",
"J  c #6D8593",
"K  c #62859D",
"L  c #6F8B9F",
"P  c #738A96",
"I  c #758B97",
"U  c #78939E",
"Y  c #4680AE",
"T  c #4A82AD",
"R  c #4D80A5",
"E  c #5482A3",
"W  c #5C86A3",
"Q  c #5384AA",
"!  c #5C8AAC",
"~  c #5989AB",
"^  c #4683B2",
"/  c #4A86B4",
"(  c #4C88B6",
")  c #4D8AB9",
"_  c #548AB4",
"`  c #5A8DB4",
"'  c #528DBA",
"]  c #588FB8",
"[  c #5690BD",
"{  c #5B93BD",
"}  c #5F9CB8",
"|  c #6187A3",
" . c #678CA5",
".. c #6B8CA1",
"X. c #648EAE",
"o. c #6A8FA9",
"O. c #6E93AD",
"+. c #6693AF",
"@. c #7D94A3",
"#. c #7296AC",
"$. c #7F99A9",
"%. c #7797A9",
"&. c #608FB2",
"*. c #6492B4",
"=. c #6A95B3",
"-. c #6296BE",
";. c #6499BF",
":. c #699BBE",
">. c #7499B4",
",. c #779EB8",
"<. c #41A4BC",
"1. c #77A2BE",
"2. c #7CA3BF",
"3. c #5792C0",
"4. c #5D96C2",
"5. c #5E98C5",
"6. c #6197C1",
"7. c #659AC3",
"8. c #6A9DC5",
"9. c #709FC3",
"0. c #6DA0C6",
"q. c #6EA1C9",
"w. c #72A3C2",
"e. c #73A5CB",
"r. c #7DAACC",
"t. c #79A5C7",
"y. c #7CABD0",
"u. c #5FD1EA",
"i. c #82959F",
"p. c #839AA7",
"a. c #8B9DAA",
"s. c #829EA9",
"d. c #86A2AC",
"f. c #91A4AF",
"g. c #81A5BB",
"h. c #82A7B6",
"j. c #93A7B2",
"k. c #9BAFB9",
"l. c #A4B5BE",
"z. c #84ADCC",
"x. c #88ACC6",
"c. c #8CB3CD",
"v. c #94B5CD",
"b. c #82AED1",
"n. c #86B1D3",
"m. c #8BB4D4",
"M. c #94BAD6",
"N. c #9BBCD4",
"B. c #9ABEDB",
"V. c #91B7D3",
"C. c #AEBEC5",
"Z. c #A4B8C1",
"A. c #A0BFD5",
"S. c #9DC1DD",
"D. c #AEC4CA",
"F. c #B5C3CA",
"G. c #BBC7CE",
"H. c #B7C8CF",
"J. c #B9C8CF",
"K. c #A4C0D4",
"L. c #A3C4DC",
"P. c #BDCCD3",
"I. c #B4CDDD",
"U. c #B7CBD1",
"Y. c #B9D0DF",
"T. c #A4C6E1",
"R. c #BCD2E0",
"E. c #C2CED3",
"W. c #CBD6DB",
"Q. c #CCD9DE",
"!. c #C5D2D7",
"~. c #CEDCE2",
"^. c #CEDDE8",
"/. c #D2DEE2",
"(. c #D1DFE8",
"). c #D6E1E5",
"_. c #DAE3E6",
"`. c #D6E3E9",
"'. c #DDE6EA",
"]. c #DEE9EC",
"[. c #E3EBEE",
"{. c #E8EEEF",
"}. c #E6EEF1",
"|. c #E8EFF1",
" X c #E7F0F5",
".X c #EAF1F3",
"XX c #F1F6F8",
/* pixels */
"                                                                                                              ",
"                                                                                                              ",
"                                                                                                              ",
"                          : c E X.&.=.X.| V 3                                                                 ",
"                    % u A ( ' ' ) ' ' 3.6.y.z.x.#.f                                                           ",
"                  : D / / ( ( ( / / / / ^ _ 6.e.m.M.>.f                                                       ",
"                w ^ D Y ( ( ( ' 6.3.' / ) / ( ) { 7.n.S.,.3                                                   ",
"              w / D D ^ ( ( { 7.] S A / ) ) ( / ( ( ' 7.n.B.O.&                                               ",
"            : ^ Y D D ( ( ' 8.T q q : 9 A ( ) ( ( ( / _ 3.9.S.v.h                                             ",
"          $ A D D D D ( ( { 7.9 X h.} = r ( / ( ( / ) ( ) ' 6.b.L.W                                           ",
"          n -.A D D ^ ( ( { { O . 2 u.K * D _ ( D D ^ ( ) / ) ] r.T.o.                                        ",
"        + c v q w u A ^ ( ( / t o 7 <.x w / ) / / D D D ^ / ) _ { 8.T.,.$                                     ",
"      6 a A D Y A E ,.8.) ( ( T A d S | ` / ( ( / D D D D D ( ) ( ] 7.B.x.$                                   ",
"    & ( 5.3.' ) ) ' 8.M.z.) ( ) ( / _ 8.' / ( / ) D D D D D D D ( ( 3.8.S.>.                                  ",
"    J W D =.{ d ^ ^ ^ d Y d d R S c 3 t.7./ ( ) ( / D D D D D D D ( ( ] 8.T.o.                                ",
"  l ].).F.j.%...G W K ..$.k.D.!.W.E.I (.].x./ ( ( ) / D D D D D D D / ) 4.8.T. .                              ",
"    j._.[.[.[.'._._.'.[.{.|.[.'.'..XF.'..X_.{ ( ( ( ( ^ D D D D D D D / ( { t.B.f                             ",
"      U D.)..X'./.)././././.Q.W.Q._.[.[.[.[.z.^ ( ( ( ( ^ D D D D D D D ^ ' 6.b.x.9 h                         ",
"          P l._.|.'.)././.W.Q.Q.Q.W./.[.[.{.N.( ( ( ( ( ( ^ D D D D D D D / ' 7.M.O._ &.g                     ",
"              J l.)..X[.[.'.[.'.[.[.[.[.[. XR.( / ( ( ( ( ( / D D D D D D D ) ] w.M.B 6.9.g                   ",
"                  Z k._.|.[.[.[.{.[.[.[..X.X'.8.( ) ( ( ( ( ( / D D D D D D D ( 4.m.O.S 7.w.>                 ",
"                    + H E..X[.[.[.[.[.[.J.@.L v u A ( ( ( ( ( ( ) D D D D D D ^ ' 8.v.c ) e.K                 ",
"                    # # f F.'.'.[.|..X_.M ! ` Y b q r Y ( ( ( ( ( ( / D D D D D ( { m.o.u ] t.                ",
"                    u d 8 1 l./.Q.[.[.[.$._ 7.7.{ ( A 9 A ( ( ( ( ( ( ( D D D D D _ 8.c.% * k %               ",
"                  9 7.4.^ y < C./._.[..Xl.~ 9.7.7.' ) D w A ' ( ( ( ( ( ^ D D D D / { m.N                     ",
"                  G n.6.( ( y g P.'.|..X/.N c.7.7.6./ ' Y 9 Y ' ( ( ( ( ( D D D D Y ' r.>.                    ",
"                  | y.] ( ( ( 5 H _.[.[..Xj. .8.7.8.' ( ( A w ( ) / ( ( ( ( D D D D ( 7.g.                    ",
"                  E e.' ) ( ) 6 @ F..X[.[.[.H A 4.7.7.' ( ( u u ) ( ( ( ( ) / D D D ^ 3.x.                    ",
"                  u 7.[ ( ( r     J ].|.[.|.(.N p ' 7.7.[ ( ( p r / ) ) ( ( / D D D D ( r.N                   ",
"                  & { ' ( u         j..X.X[..XW.H u / 5.8.{ ( ( u w A ( ) / _ / D D D ( e.|                   ",
"                    S 5.( %           a.]..X[.|._.s.h a ( 5.4.{ ' A w w A ) ( / D D D ^ 7.O.                  ",
"                    : z.S               J (..X|.|.}.J.U g u D _ ' ' ) b = / ) / D D A ^ 4.>.                  ",
"                      0 :                 l P.XX[.|..X].U.d.x k u e q & 4 ^ ) ( Y D D Y { O.                  ",
"                                            3 C..X X[.[. X].Q.D.d.q 4 i d ) ( ( ^ D D Y 3.>.                  ",
"                                                @.`..X|.[.[..X{..XY.' / ) ( ( ( ^ D D Y ) =.                  ",
"                                                  z H.}.[.'.'.'.}.|.M./ / ( ( ( ( D D D ) =.                  ",
"                                                      p.~.~.Q.Q.Q._.[.z.^ ( ( ( ( D D Y ' =.                  ",
"                                                        J P.).Q.W.W.[.(.] ( ( ( ( Y D D ) *.                  ",
"                                                          3 Z.)./.W./.|.L./ ( ( ( Y D D ' &.                  ",
"                                                              p.Q.~.W.'.[.8.^ ( ( Y D ^ ' &.                  ",
"                                                                I !./.Q.[.I.( ( ( / A Y ' !                   ",
"                                                                  l U./.).[.8./ ( Y A Y [ E                   ",
"                                                                    l H./.[.K.^ ( ^ D ^ 3.B                   ",
"                                                                      C P.[.^.] ( / A ^ 3.k                   ",
"                                                                        P ).|.r.^ ^ D ^ ' j                   ",
"                                                                          C.XXA.^ ^ A ( ]                     ",
"                                                                          a.XXY.( ^ D ( _                     ",
"                                                                            [.^.' D D ( Q                     ",
"                                                                            ^.].{ Y Y ) m                     ",
"                                                                            P.}.;.Y Y ( 9                     ",
"                                                                            C. X;.Y T / *                     ",
"                                                                            j. X{ Y T Y                       ",
"                                                                            i.`.[ Y / p                       ",
"                                                                              K.) Y ( w                       ",
"                                                                              ! ) T T *                       ",
"                                                                              s ) ( a                         ",
"                                                                              r ) ) q                         ",
"                                                                        x #.h...Y Y G %.                      ",
"                                                                    M +.} 0.0.] p c 1.c.h.F                   ",
"                                                                * n [ [ ' ) ( / ^ T ( ( 7.1.H                 ",
"                                                              < / 3.{ 6.7.6.[ ( ( ( ( { { w.w.K               ",
"                                                            9 ( 7.{ { ' ( ( ( ( ( ( ( [ 7.r.n.w.V             ",
"                                                            T 5.[ ( ( ^ ( ' / [ { ( ( ( ( { e.m.*.            ",
"                                                          n 5.( ( ( 7.z.M.8.{ 0.8.' / ( ( ( _ e.n.B           ",
"                                                        : ' ' 3.{ ` *.:.7.7.7.E v 7.[ ( ( ( ( ( r.-.          ",
"                                                        m 5.4.B 1                 v 6.5.' ( ( ( ] 8.u         ",
"                                                        &.8.h                         B ` { 3.3.) 3.S         ",
"                                                        c j                                 m ~ [ ' 3.w       ",
"                                                                                                m 3.4.m       ",
"                                                                                                  S 4.T       ",
"                                                                                                    _ _       ",
"                                                                                                    c e.      ",
"                                                                                                      |       ",
"                                                                                                              ",
"                                                                                                              "
};
