/* XPM */
static char *_bf8826dcb16489293e53d71c38fa0e3adgxiz42NTEmG7Ox[] = {
/* columns rows colors chars-per-pixel */
"75 75 213 2 ",
"   c None",
".  c #2F2F39",
"X  c #2C2C37",
"o  c #35303A",
"O  c #383843",
"+  c #373741",
"@  c #464750",
"#  c #5A5A62",
"$  c #707178",
"%  c #FFDE4F",
"&  c #FFDE54",
"*  c #FFDF5A",
"=  c #F5DE5E",
"-  c #FFE05D",
";  c #FFE057",
":  c #D6DE7A",
">  c #E8DE68",
",  c #F4DF64",
"<  c #E6D674",
"1  c #DDE078",
"2  c #EEE16C",
"3  c #FFE163",
"4  c #FFE36B",
"5  c #F8E26A",
"6  c #E8E17E",
"7  c #FDE572",
"8  c #F5E376",
"9  c #3D7DB3",
"0  c #7F7F85",
"q  c #417EB1",
"w  c #469196",
"e  c #4D87AF",
"r  c #4381B3",
"t  c #4585B9",
"y  c #458DBB",
"u  c #4B8BBA",
"i  c #4595BD",
"p  c #5394AD",
"a  c #6C9AA6",
"s  c #3AB9CD",
"d  c #4D9DC1",
"f  c #5B9CC6",
"g  c #47AAC6",
"h  c #5FA2C9",
"j  c #40B4C9",
"k  c #61A5CE",
"l  c #67AACF",
"z  c #6AAED3",
"x  c #65AAD4",
"c  c #6DB2D6",
"v  c #6CB4DA",
"b  c #66B8D8",
"n  c #70B6D7",
"m  c #71B7D8",
"M  c #75BCDB",
"N  c #78BFDC",
"B  c #7CBCD2",
"V  c #75BEE0",
"C  c #04D3CF",
"Z  c #02D6D2",
"A  c #0BD4D1",
"S  c #0BD9D6",
"D  c #0CDCD9",
"F  c #05DBD7",
"G  c #13D4D2",
"H  c #1CD6D4",
"J  c #14DCD9",
"K  c #1CDCDA",
"L  c #18D9D6",
"P  c #3CCBD5",
"I  c #24D7D5",
"U  c #29D7D6",
"Y  c #2DD8D7",
"T  c #25DCDB",
"R  c #2BDCDA",
"E  c #28D8D7",
"W  c #31D8D7",
"Q  c #35D9D8",
"!  c #3CDADA",
"~  c #31D5D8",
"^  c #32E1DF",
"/  c #34DFE0",
"(  c #33E1E1",
")  c #3EE0E0",
"_  c #2EE1E0",
"`  c #49CBD5",
"'  c #56C8D9",
"]  c #44DBDC",
"[  c #4CDCDD",
"{  c #46D5D9",
"}  c #54DDDE",
"|  c #5ADDDF",
" . c #58D4DC",
".. c #58C7C9",
"X. c #7BDECB",
"o. c #69C9DB",
"O. c #7AC1DD",
"+. c #7AC8DF",
"@. c #66DBD9",
"#. c #75DCD7",
"$. c #6FDECF",
"%. c #4CE0DF",
"&. c #7CE0D9",
"*. c #55DDE4",
"=. c #5CDEE1",
"-. c #7BC4E2",
";. c #7EC9E5",
":. c #77C0E1",
">. c #61DEE2",
",. c #7AD4E4",
"<. c #46E1E1",
"1. c #59E0E0",
"2. c #63E1E2",
"3. c #6DE1E5",
"4. c #6CE0E9",
"5. c #74E1E5",
"6. c #7BE2E6",
"7. c #74E1E9",
"8. c #7AE2E9",
"9. c #8F8F95",
"0. c #A2B592",
"q. c #BCBABD",
"w. c #ADDE9B",
"e. c #BADE93",
"r. c #BFDE8A",
"t. c #9DDEAA",
"y. c #8CDEB9",
"u. c #97D4B4",
"i. c #A3DEA7",
"p. c #ACCBAF",
"a. c #9FE1BB",
"s. c #B4E1A8",
"d. c #A5E1B7",
"f. c #AFE1AA",
"g. c #C5DE84",
"h. c #C6DE85",
"j. c #D1D189",
"k. c #D6E189",
"l. c #C7E195",
"z. c #D4E395",
"x. c #C8E08F",
"c. c #FFEA8C",
"v. c #E6E89E",
"b. c #EBE99E",
"n. c #FFEB94",
"m. c #FFEC9B",
"M. c #F4EA9B",
"N. c #FFF49E",
"B. c #E3E385",
"V. c #C5E4A7",
"C. c #DAE7AA",
"Z. c #C6E7BA",
"A. c #D7E9B7",
"S. c #E6E9A5",
"D. c #F5EBA5",
"F. c #FCEDA2",
"G. c #FEF3A4",
"H. c #F9F0A8",
"J. c #E8EBB2",
"K. c #E0F3BE",
"L. c #BCBFD4",
"P. c #FDAECF",
"I. c #FBB3D2",
"U. c #FFAFD0",
"Y. c #82DEC1",
"T. c #8DCAC9",
"R. c #B3C4D1",
"E. c #88E0CA",
"W. c #96E1C6",
"Q. c #82E1D3",
"!. c #84E2D9",
"~. c #97E4DA",
"^. c #B7E6C8",
"/. c #AAE6D7",
"(. c #B9E8D7",
"). c #83CCE5",
"_. c #89D9E7",
"`. c #97D7E6",
"'. c #A3DEEB",
"]. c #82E3E7",
"[. c #82E3E7",
"{. c #8BE3E7",
"}. c #86E3E9",
"|. c #8AE4E9",
" X c #8DE9EB",
".X c #87EAE9",
"XX c #9DE6EE",
"oX c #97E7E9",
"OX c #9BE6F0",
"+X c #92EAF2",
"@X c #99F1F1",
"#X c #A4E6E6",
"$X c #A4E7EE",
"%X c #A8E3EE",
"&X c #A3EDED",
"*X c #ABE8EF",
"=X c #A9E7E2",
"-X c #B3F0EF",
";X c #ADEAF2",
":X c #A4EAF1",
">X c #B3EBF3",
",X c #B4F1F1",
"<X c #B5F2F7",
"1X c #B4F0EA",
"2X c #C6C4C7",
"3X c #CAE9C9",
"4X c #D4ECC7",
"5X c #CCF5F5",
"6X c #EBEAEB",
"7X c #ECFDFD",
"8X c #FFFFFF",
"9X c #F2FDFC",
"0X c #FFEBF4",
/* pixels */
"                                                                                                                                                      ",
"                                                                                                                                                      ",
"                                                                                                                                                      ",
"                                                                                                                                                      ",
"                                                                                                                                                      ",
"                                                                                          V N M M V N V V -.                                          ",
"                                                                                m m m M :.:.V :.-.:.-.-.-.;.).-.                                      ",
"                                                                          m M V V M M M m M M M M M M N N N N -.-.                                    ",
"                                                                    k x k k f f k l l B M M M M M M M N N N O.O.-.                                    ",
"                                                                t t t r 9 q r r r r r e u f l M M M M M N N N ;.-.                                    ",
"                                                            r r t q r r r r r r q r q q q q q u z M M N M N O.-.                                      ",
"                                                          u t r r r r q q r r r r r q r r q q q u B M N N N -.O.                                      ",
"                                                      t r r r r q r r q q q 9 9 9 9 q q q r q q t n O.M N O.-.                                        ",
"                                                    r t r q q q q r u i i d h i a p q 9 9 9 q q u M M M M O.:.                                        ",
"                                                  t y q q q i g '  .| =.2.3.2.&.2 2 < : 0.a e u c B O.M M -.O.                                        ",
"                                                t t q t g ` } 1.} | | @.2.2.2.l.; 3 4 4 7 7 W.,.+.M M M N -.O.                                        ",
"                                              t t r s { [ } } } | | =.>.>.2.X.3 3 3 4 4 4 z.6.].}._.+.O.M -.-.                                        ",
"                                            r t i ` ] [ [ [ [ } *.| =.1.>.=.e.- 3 3 4 4 7 ~.8.].[.{.{.[.).-.-.                                        ",
"                                          q y j ] ] ] [ [ } } } } | >.@.=.#.2 * 3 3 4 4 z.7.6.].[.}.{. X XOX_.                                        ",
"                                          y P ] ] ] ] ] [ [ } } | | | =.=.a.- - 3 3 4 4 W.7.6.].[.}.{.{.|. XA.m.                                      ",
"                                        i P ! ! ] ] { [ [ [ [ } } | 1.>.=.: - 3 3 3 4 B.6.6.6.6.[.}.{.|.|.oXM.m.G.                                    ",
"                                      i P ! ! ! ! ] ] [ [ [ } } | | =.=.X., - - 3 4 4 f.7.6.6.].[.}..X{.|.^.n.m.G.G.                                  ",
"                                      P Q ! ! ] ] ] ] [ [ } } } =.=.| 1.t.& - - 3 4 5 !.7.6.6.[.[.}.{..X|.A.c.n.m.G.G.                                ",
"                                    s ^ Q ! ! ! ] ] ] [ [ [ } } } =.=.=.h.& - 3 3 3 k.5.6.6.].6.[.{.{.{.oXS.n.n.m.m.G.1X                              ",
"                                  s / Q Q ! ] ] { ] ] [ [ [ } } } | =.@.2 ; - - 3 - d.7.6.6.[.[.].}.|.|./.n.n.m.m.m.J.$X;X                            ",
"                                  ~ W Q Q Q ! ! ! ] ] [ [ [ } } =.| *.Y.& & * 3 3 5 Q.5.5.6.6.[.].}.|.}.^.c.n.n.m.m.4XOX;X;X                          ",
"                                ~ ( W W Q Q ! ] ] ] ] [ [ [ } } } | *.i.& & - 3 3 k.5.5.6.6.6.[.].}.}.|.C.c.n.m.m.m.(.OX:X;X<X                        ",
"                                R R W Q Q ! ! ! ] ] ] [ [ [ } } } =.=.h.% * - , - s.4.5.5.6.6.[.}.}.{.{.v.c.n.m.m.D.=X:X:X:X<X;X                      ",
"                              R _ W W Q Q Q ! ! ! ] ] [ [ [ } } } =.@.1 & * - 3 - W.3.5.,.6.6.].].}.{.~.M.c.n.n.n.J.$XXX$X$X;X>X                      ",
"                              E R R W W Q } 1.[ ! ] ] [ [ [ [ } } } $.= & & - - 5 &.5.5.6.6.6.].].}.}./.c.n.n.n.m.A.XX$X:X$X%X<X>X                    ",
"                              T Y W U =.5X9X9X7X@X] ] [ [ } } } } =.X.& & * - * 6 3.5.5.5.6.6.].}.}.}.^.c.c.n.m.n.4XOXXX$X$X;X;X<X            -.;.-.  ",
"                            R _ Y U | 7X8X8X6Xq.q.#X] [ [ [ } } *.*.y.& & * 3 - x.3.5.5.6.6.6.].].}.].^.c.n.n.n.N.^.OX$X$X$X;X%X<X>X      -.-.-.O.).O.",
"                            Y T Y U 5X8X8X6X# . X $ @.%.[ [ [ } } *.t.% & * * - s.2.5.5.6.6.[.].].].}.A.c.c.n.m.m.(.XXXX$X%X*X*X>X>X  -.-.).N N ).-.N ",
"                            T R U ] 7X8X8X9.. O o o p <.[ [ } } } *.w.% & * - - a.4.5.5.5.6.6.6.}.}.6.C.c.n.n.n.F./.XXXX$X$X*X*X%X>X`.V V V N N B -.  ",
"                            T Y I ] 9X8X8X9.. O o o w %.[ } } } } *.e.% & * - 3 a.3.5.5.6.6.6.[.].}.}.C.c.n.n.m.m.=XXX$X$X$X*X*X>X>X`.M N N N ).N ).  ",
"                          T T U Y Q 5X8X8X2XO . . @ ..] [ [ } } =.*.r.% * * - 3 E.3.5.5.5.6.[.[.].].{.v.c.n.n.n.D.#XXX$X$X%X*X*X>X>X`.m ).N N N N -.  ",
"                        H T E U Y U 6.8X8X8X2X$ 9.R.#.] [ [ } } } =.g.% & * * , Q.3.5.5.6.6.6.].}.}.}.v.c.c.n.m.D.#XXX$X$X$X*X*X%X>X'.T.O.O.N N O.O.  ",
"                      K T I E U Y Y Y  X9X8X8X8X0XI.I.2X[ [ } } } *.g.% * * * 5 Q.3.5.5.6.6.6.].].}.{.v.c.n.n.n.D.#XXXXX$X*X*X*X%X>X%X).O.N N N O.-.  ",
"                  L H K I I I U Y Y W Y [ .X{._.I.P.U.I.@.] } } =.*.g.% & * 3 , Q.3.,.6.5.6.6.].].}.{.v.c.n.n.m.D.XXXX$X$X*X*X*X>X>X'.).O.O.).B -.O.  ",
"  Z F S D D J J J K K I I I I U Y W W Q Q R Q P L.I.I.R.[ [ } } } *.g.% * * , 3 Q.3.3.5.5.6.6.].}.}.{.v.c.n.n.n.D.#XXX$X$X$X*X*X*X>X'.N O.O.N N O.).  ",
"Z Z C C G G A G G H H H I I U U U W W Q Q ! ! ] ]  .@.] [ [ } } | *.h.& * * * , E.5.5.6.6.6.6.].].}.}.v.c.n.n.m.M.#XXX$X$X$X*X*X*X>X'.N V N ).N O.-.  ",
"Z Z C Z A A G G G H H H I I I U Y Y W W Q Q ! ! ] ] ] { [ [ [ } } *.e.% * * 3 3 W.>.5.5.5.6.6.].}.}.}.C.c.n.n.m.F.=XXX$X$X$X*X*X*X>X`.B M ).V N O.-.  ",
"  Z F D S J J J J K K H H I I U Y W W Q ! Q ! ] ] ] ] [ [ [ } } } *.w.% & * 3 - d.7.5.5.6.6.6.[.].}.].C.c.n.n.m.M.=XOXXX$X*X*X*X*X>X).O.N B N N O.-.  ",
"    F S S S S L L K H K I I I U U Y W Q ! ! Q ! ] ] ] [ [ } } } } *.i.% * * - - i.>.5.5.6.6.6.[.].}.].A.c.n.n.m.m.(.OX$X$X$X*X*X>X>X).-.N ).N N O.-.  ",
"                        T T I U Y Y W Q W Q ! ] ! ] ] ] [ [ [ } } *.y.% & * 3 - l.7.5.5.5.6.6.[.].}.}.Z.c.n.n.m.n.(.OXXX$X$X*X*X<X%X-.:.-.-.O.O.O.).N ",
"                          T T U Y W W W ! Q ! ! ] ] { [ [ [ } } | *.X.& & * - - k.,.5.5.6.6.6.[.].{.].^.c.n.m.m.m.3XOX$X$X$X*X;X>X        -.).-.O.+.O.",
"                            T _ Y Y W Q Q ! ! { ] ] ] [ } [ } } } =.$.= & - 3 3 8 &.3.5.5.6.6.[.}.}.}./.c.n.n.m.m.A.XX$X$X$X*X<X>X          -.-.).).  ",
"                              Y Y Y W Q W Q ! ! ] ] ] [ [ [ } } | | @.> & - - 3 3 W.4.5.6.6.6.[.].}.}.~.n.n.n.m.N.J.XX$X$X$X*X>X                      ",
"                                _ R W Q Q Q } 5.| ] ] ] [ } } [ } =.=.h.& - - 3 4 f.4.5.6.6.6.[.].}.{.{.S.c.m.m.m.H.#X:X$X$X<X;X                      ",
"                                R _ W Q Q ! @X-X&X1.] [ [ [ } } } =.*.w.& * 3 3 3 k.7.7.6.6.6.[.}.}.}.{.C.c.n.m.m.F.(.OX$X;X;X                        ",
"                                  Q Q Q Q ! oX,X-X&X| ] [ [ [ } *.| *.y.; - 3 3 3 8 &.7.5.6.6.[.].}.{.}.Z.n.m.m.F.m.3XOX:X<X                          ",
"                                    ( Q ! Q [ &X-X-X&X@.[ [ } } } | =.$.= - 3 3 3 4 d.4.6.6.6.[.].}.{.|./.n.n.m.m.F.J.:X:X                            ",
"                                    Q ( Q Q ! } &X,X-X-X.X[ } } | | =.>.: - - 3 4 3 l.7.,.8.6.[.].}.{.|.oXM.n.m.m.F.H.<X:X                            ",
"                                      ( ! ! ! ! 1.@X-X-X-X X[ [ } | =.=.i.- - 3 3 4 8 !.5.8.6.[.}.}.{..X_.A.n.m.F.G.G.4X                              ",
"                                        / ! ! ! ! ] {.-X,XoX%.1.} } =.=.X.3 3 3 4 4 4 d.7.6.6.6.].}.{.{.|.^.n.m.G.G.H.                                ",
"                                          ) ) ! ] ] ] 2.{.2.[ 1.5.5.2.=.@.1 - 3 3 4 4 z.8.8.].].].}.{.{.|.XXM.N.G.                                    ",
"                                            ) <.] ] [ ] ] ] } 3.-X-X6.=.1.w.- 3 3 4 4 7 ~.5.].].}.}.{..X|.+XK.N.                                      ",
"                                              { ] ] ] [ } } [ 3.,X,X[.| 2.&.5 3 4 4 7 4 V.7.6.6.].}.{.|.+X+X                                          ",
"                                                ' ] ] ] [ [ } } 5.6.1.| @.>.x.- 3 4 7 7 8 !.].].].}. X+X+X                                            ",
"                                                  b  .] [ } } } } } 2.2.2.>.E.5 4 4 4 7 7 V.8.].[.|._.                                                ",
"                                                    x b ' [ [ =.| =.1.@.=.2.>.k.3 5 4 4 7 7 ~.,.,.).                                                  ",
"                                                      c v x ' '  .=.1.2.2.2.2.E.5 5 5 B.z.p.T.O.M -.                                                  ",
"                                                        v v l z c b b o.o.o.o.o.u.q.T.B m V M M N O.                                                  ",
"                                                          x c v z z z z z n m m v v v m M m M M N N                                                   ",
"                                                              v v v c c c c n n n m m M m M M M O.M                                                   ",
"                                                                  c m v c c v m m m m m M M M M O.O.                                                  ",
"                                                                    c v m m m v n m M n M M M M M -.                                                  ",
"                                                                          v m :.M M m M M M M M O.;.O.                                                ",
"                                                                                m m V V -.-.-.-.-.-.                                                  ",
"                                                                                          V N M :.                                                    ",
"                                                                                                                                                      ",
"                                                                                                                                                      ",
"                                                                                                                                                      ",
"                                                                                                                                                      ",
"                                                                                                                                                      "
};
