/* XPM */
static char *b31f867bbe94451ac200b44832cc2029mgnvx9LzIm3HKVz9[] = {
/* columns rows colors chars-per-pixel */
"75 75 77 1 ",
"  c None",
". c black",
"X c #020202",
"o c gray1",
"O c #060606",
"+ c #070707",
"@ c gray4",
"# c gray5",
"$ c #0E0E0E",
"% c gray6",
"& c #111111",
"* c #131313",
"= c #151515",
"- c #161616",
"; c #181818",
": c #191919",
"> c gray10",
", c #1B1B1B",
"< c #1D1D1D",
"1 c #1E1E1E",
"2 c #202020",
"3 c gray13",
"4 c #222222",
"5 c #232323",
"6 c gray14",
"7 c #252525",
"8 c gray15",
"9 c #272727",
"0 c #282828",
"q c gray16",
"w c #2A2A2A",
"e c gray17",
"r c #2C2C2C",
"t c #2D2D2D",
"y c gray18",
"u c #2F2F2F",
"i c gray19",
"p c #313131",
"a c #323232",
"s c gray20",
"d c #343434",
"f c gray21",
"g c #373737",
"h c gray22",
"j c #393939",
"k c #3A3A3A",
"l c gray23",
"z c #3C3C3C",
"x c gray24",
"c c #3E3E3E",
"v c #3F3F3F",
"b c #414141",
"n c #434343",
"m c #444444",
"M c #464646",
"N c gray28",
"B c #494949",
"V c gray29",
"C c #4B4B4B",
"Z c #4E4E4E",
"A c #505050",
"S c #515151",
"D c gray32",
"F c #535353",
"G c #555555",
"H c #565656",
"J c gray34",
"K c #585858",
"L c gray35",
"P c #5A5A5A",
"I c #5B5B5B",
"U c gray37",
"Y c #5F5F5F",
"T c #606060",
"R c gray39",
"E c #646464",
"W c #676767",
/* pixels */
"                                                                           ",
"                                                                           ",
"                                                                           ",
"                                                                           ",
"                                                                           ",
"                                                                           ",
"                                                                           ",
"                                                                           ",
"                                                                           ",
"                                                                           ",
"                                                                           ",
"                                                                           ",
"                                                                           ",
"                                          0vNbk0                           ",
"                                         bTTUIJZk;                         ",
"                                        NWTIJDZBNk;                        ",
"                                       gTUIJZBBNvv0                        ",
"                                       ZTJJv9<yvkga-                       ",
"                                      9JIJN    0gay;                       ",
"                                      9JDZa    ;yy0<                       ",
"                                      9DZBa    ;y99-                       ",
"                                       NBNv5  &9995&                       ",
"                                       aNvkg959955<                        ",
"                                        gkgaa099<<$                        ",
"                                        ;aay095<<&                         ",
"                                          50955;$                          ",
"                                           55<-@                           ",
"                                           ;&O..                           ",
"                                           .....                           ",
"                                           .....                           ",
"                                           .....                           ",
"                                           .....                           ",
"                                           .....                           ",
"                                           .....                           ",
"                                           .....                           ",
"                       O                   .....                           ",
"                       ;<                  .....                           ",
"                       9a                  .....                           ",
"                       5g5                 .....                           ",
"                       ;a0                 .....                           ",
"                       <y$.                .....                           ",
"                       -$...               .....                           ",
"                       O....               .....                           ",
"                       ......              .....                           ",
"                       ......              .....                           ",
"                       .......             .....                           ",
"                       .......             .....                           ",
"                       .....               .....                           ",
"                       .....               .....                           ",
"                       .....               .....                           ",
"                       .....               .....                           ",
"                       .....              ......                           ",
"                        .....             .....                            ",
"                        .....             .....                            ",
"                        ......           ......                            ",
"                         ......         ......                             ",
"                         ........     .......                              ",
"                          ...................                              ",
"                           .................                               ",
"                            ..............                                 ",
"                              ...........                                  ",
"                                 .....                                     ",
"                                                                           ",
"                                                                           ",
"                                                                           ",
"                                                                           ",
"                                                                           ",
"                                                                           ",
"                                                                           ",
"                                                                           ",
"                                                                           ",
"                                                                           ",
"                                                                           ",
"                                                                           ",
"                                                                           "
};
