/* XPM */
static char *_36dffa37ad147e6a66ebbde190c3303U8yNaT9MGMoSKkT2[] = {
/* columns rows colors chars-per-pixel */
"75 75 254 2 ",
"   c #94793B",
".  c #A6792B",
"X  c #B3781A",
"o  c #9C7F47",
"O  c #BA8B28",
"+  c #BD942A",
"@  c #BC9837",
"#  c #AD8836",
"$  c #BB8916",
"%  c #CA961D",
"&  c #CC9B2C",
"*  c #C69728",
"=  c #D39B29",
"-  c #C49C33",
";  c #CB9B34",
":  c #C79836",
">  c #D39D39",
",  c #C28723",
"<  c #CAA32C",
"1  c #D7A62A",
"2  c #CCA334",
"3  c #CBA43C",
"4  c #CAA93B",
"5  c #D5A434",
"6  c #DAA435",
"7  c #D5AA34",
"8  c #DAAC34",
"9  c #D4A33C",
"0  c #D5AC3A",
"q  c #DBAD3C",
"w  c #DBA739",
"e  c #DBB43C",
"r  c #D8B436",
"t  c #D8B12E",
"y  c #E2AD38",
"u  c #E4B33D",
"i  c #E7B738",
"p  c #D9C038",
"a  c #DCC22D",
"s  c #E7C539",
"d  c #EBD13E",
"f  c #B99A46",
"g  c #B09451",
"h  c #BCA756",
"j  c #B7A565",
"k  c #BCAF76",
"l  c #A89A67",
"z  c #C69C47",
"x  c #D59D46",
"c  c #C19D56",
"v  c #CCA545",
"b  c #C8A648",
"n  c #D4A343",
"m  c #D3AC43",
"M  c #DBAC44",
"N  c #D3A54C",
"B  c #D4AB4B",
"V  c #DDAB4D",
"C  c #DCA447",
"Z  c #DBB543",
"A  c #D8B449",
"S  c #CBAB5B",
"D  c #C6A658",
"F  c #D2AB52",
"G  c #D9AA56",
"H  c #DBB253",
"J  c #DDBC54",
"K  c #DCB45A",
"L  c #DBBB5C",
"P  c #D4B658",
"I  c #CAB752",
"U  c #E4B543",
"Y  c #E5BB4A",
"T  c #E8BA45",
"R  c #E6AD59",
"E  c #E4B354",
"W  c #E3B955",
"Q  c #E2B55B",
"!  c #E9B55D",
"~  c #E5BA5B",
"^  c #EABC5D",
"/  c #EBB956",
"(  c #E7B343",
")  c #C7A867",
"_  c #D9AD66",
"`  c #CAB167",
"'  c #D8B766",
"]  c #CAAE76",
"[  c #CAB777",
"{  c #D9BA77",
"}  c #E4BC64",
"|  c #EBBC64",
" . c #EBBD6A",
".. c #E8B565",
"X. c #F4BA77",
"o. c #EFB86C",
"O. c #C19E66",
"+. c #DEC347",
"@. c #DBC254",
"#. c #EAC345",
"$. c #E8C449",
"%. c #F3C64A",
"&. c #E7C758",
"*. c #F5CB58",
"=. c #EBD45C",
"-. c #F6D65A",
";. c #EFD84C",
":. c #FFE35C",
">. c #F7EB5A",
",. c #FDF35C",
"<. c #FEFA5C",
"1. c #FAF559",
"2. c #ECEB5B",
"3. c #D6C767",
"4. c #CDC37A",
"5. c #D9C87A",
"6. c #DDD16B",
"7. c #EBC565",
"8. c #ECCC63",
"9. c #ECC46C",
"0. c #ECCB6B",
"q. c #E5C867",
"w. c #F3C869",
"e. c #EAD668",
"r. c #F6D868",
"t. c #EDC373",
"y. c #EBC878",
"u. c #F3C673",
"i. c #F4CD74",
"p. c #F7CA79",
"a. c #E8D876",
"s. c #F6D37C",
"d. c #FAD37B",
"f. c #F7DA76",
"g. c #FEED65",
"h. c #FBE669",
"j. c #FDF967",
"k. c #EBE27C",
"l. c #F4E374",
"z. c #FCE573",
"x. c #FEEB75",
"c. c #F8E67A",
"v. c #FFF47C",
"b. c #FCFC78",
"n. c #E7E167",
"m. c #BAB488",
"M. c #CBB886",
"N. c #D2BB84",
"B. c #C9BA98",
"V. c #BFC09D",
"C. c #CDCB8C",
"Z. c #CBC487",
"A. c #D7C98B",
"S. c #D7D389",
"D. c #CCC897",
"F. c #D6CA99",
"G. c #D9D897",
"H. c #E9CC87",
"J. c #F3D381",
"K. c #FBD582",
"L. c #FDDC83",
"P. c #F5D988",
"I. c #E9D08C",
"U. c #DEE994",
"Y. c #EBE789",
"T. c #F4E886",
"R. c #FFF482",
"E. c #FEFD84",
"W. c #FFF68B",
"Q. c #FDFD8D",
"!. c #ECEE92",
"~. c #ECEB9B",
"^. c #E6E997",
"/. c #F3EC94",
"(. c #E9F298",
"). c #FEFD92",
"_. c #FDFD9C",
"`. c #F7F599",
"'. c #DAD8AA",
"]. c #DCD6B6",
"[. c #D2CAA7",
"{. c #E5D4A7",
"}. c #E8DBBA",
"|. c #EED8AD",
" X c #DCE2A3",
".X c #E9EBA5",
"XX c #FAE6AC",
"oX c #E9F5A4",
"OX c #F8F7A6",
"+X c #E9E4B9",
"@X c #FBEAB5",
"#X c #FCECBC",
"$X c #F7E7B9",
"%X c #FFF3BB",
"&X c #DCD7CC",
"*X c #DDD5D2",
"=X c #E5DFCD",
"-X c #ECE7C6",
";X c #FCEDC3",
":X c #F4EDCB",
">X c #FCEECB",
",X c #F4EBC3",
"<X c #FFF2C4",
"1X c #FEF2CC",
"2X c #FBF7C9",
"3X c #FCEED3",
"4X c #FCEEDB",
"5X c #F3ECD7",
"6X c #F5F4D2",
"7X c #FDF3D3",
"8X c #FCF4DB",
"9X c #FEF9DD",
"0X c #FAF7D8",
"qX c #EDEBD9",
"wX c #E5E7E5",
"eX c #EBECE6",
"rX c #E7EAEA",
"tX c #EBEDEC",
"yX c #E8E9E6",
"uX c #F4EEEC",
"iX c #F5ECE4",
"pX c #EEF2ED",
"aX c #EBF1E7",
"sX c #F5F3E5",
"dX c #FCF5E4",
"fX c #FDFAE5",
"gX c #F2F3ED",
"hX c #FBF5EB",
"jX c #F5FAED",
"kX c #FDFBEC",
"lX c #F7FAE7",
"zX c #EDEEF2",
"xX c #F2EEF3",
"cX c #F5EFF7",
"vX c #EEF2F2",
"bX c #EEF3F9",
"nX c #EBF8F6",
"mX c #F3F5F4",
"MX c #FAF6F3",
"NX c #F5F8F6",
"BX c #FBFBF4",
"VX c #F3F5F9",
"CX c #F5F6F9",
"ZX c #F5F5FA",
"AX c #F9F6FC",
"SX c #F7F9F8",
"DX c #F5F9FA",
"FX c #F7F9FD",
"GX c #F6F9FA",
"HX c #F8FAF9",
"JX c #F9F9F9",
"KX c #F9FAFD",
"LX c #FAFDFD",
"PX c #FAFBFB",
/* pixels */
"mXmXmXHXmXSXmXHXmXmXmXSXmXHXmXDXpXNXpXDXaXDXgXPXmXHXzXFXzXLXvXFXbXFXzXLXtXLXgXNXgXNXpXPXtXFXvXFXvXHXmXNXmXMXmXNXmXNXmXHXmXmXgXNXmXHXmXHXmXSXmXNXmXmXmX",
"mXNXNXSXNXmXmXNXmXmXmXNXNXmXNXNXmXmXDXpXNXmXSXmXpXvXVXmXKXvXFXVXVXnXHXmXHXmXSXmXmXmXHXmXHXvXFXmXZXVXAXmXmXjXgXmXMXNXmXvXmXmXNXmXmXmXmXNXNXmXmXmXSXSXmX",
"mXmXmXHXmXHXmXSXmXSXmXPXmXHXmXNXVXFXmXmXmXNXgXpXyXgXmXSXNXBXmXAXmXHXmXNXgXNXmXBXmXBXmXNXmXNXmXmXAXFXmXHXpXNXmXmXmXAXrXxXzXFXmXVXmXHXmXHXmXSXmXNXmXmXmX",
"HXSXHXmXSXvXmXmXNXmXSXmXNXmXNXVXVXmXAXAXDXjXpXeXgXgXBXgXSXmXmXNXSXmXHXmXHXmXNXmXmXmXSXmXSXmXSXAXZXZXFXmXPXmXNXVXmXtXtXtXFXmXVXHXmXmXmXmXSXmXmXmXmXmXSX",
"mXmXmXSXmXSXmXSXmXmXmXHXmXSXmXNXmXAXmXKXxXuXrXtXmXNXmXAXmXAXmXNXmXAXmXAXmXHXmXVXVXNXmXHXmXAXMXVXAXZXVXFXZXAXmXmXtXtXeXNXmXNXmXNXmXSXmXSXmXSXmXVXmXmXmX",
"SXmXSXmXSXmXmXmXmXmXSXmXHXmXHXmXNXmXNXmXmXrXzXVXFXmXFXZXFXVXSXmXAXmXAXmXAXmXHXmXSXNXSXVXAXZXAXmXZXVXKXmXKXmXmXzXrXrXNXgXNXgXBXgXNXmXSXgXSXmXHXNXSXNXSX",
"mXmXNXmXNXSXNXmXNXmXmXmXNXNXmXmXmXSXxXmXrXcXmXFXAXAXVXKXmXPXmXmXmXHXmXSXmXFXmXVXVXFXmXKXmXAXmXMXmXNXNXmXVXVXvXzXvXvXNXjXjXhXjXhXmXNXmXmXmXmXmXmXmXmXmX",
"HXmXSXmXSXmXSXmXSXmXHXmXHXmXNXmXBXgXSXwXVXzXLXmXZXzXKXzXKXtXBXmXNXmXLXtXLXvXFXnXVXvXLXtXLXtXPXgXNXgXjXgXSXvXbXrXFXvXNXgXmXgXSXmXNXmXSXmXSXmXHXmXmXNXSX",
"mXmXmXNXmXSXNXSXmXNXmXSXmXNXmXSXmXmXmXmXmXVXNXmXvXjXmXmXjXgXmXNXmXmXmXVXpXPXvXmXnXDXnXPXtXLXzXSXhXjXmXmXmXmXmXVXVXmXmXSXmXmXVXFXVXmXmXHXmXHXmXmXNXmXmX",
"mXmXHXmXSXmXmXmXSXmXmXmXSXmXSXmXVXVXNXmXNXnXNXNXPXmXmXpXNXmXNXmXKXmXKXtXKXpXmXNXLXmXSXaXLXmXLXmXmXgXMXmXVXmXVXmXmXmXSXmXFXVXcXAXHXmXHXmXmXmXmXHXmXmXmX",
"mXmXmXSXmXSXmXSXmXSXmXSXmXSXmXVXVXFXmXVXmXNXjXNXpXNXmXFXVXZXcXAXvXmXmXAXmXPXgXNXpXSXmXmXmXKXzXFXZXFXAXFXVXZXVXHXNXnXpXDXZXZXcXcXVXVXmXmXtXmXpXHXHXmXmX",
"SXNXHXmXHXgXmXmXNXmXSXmXSXmXHXmXVXVXFXmXNXmXNXnXNXNXKXVXZXAXAXZXtXwXSXiXkXsXBXdXkXhXBXsXBXgXMXmXAXcXAXcXFXcXAXmXNXjXNXjXFXZXVXcXmXmXmXwXtXmXmXmXmXNXNX",
"mXmXmXSXmXPXmXHXmXSXmXHXmXSXmXmXVXKXmXFXmXFXmXZXmXBXmXVXvXAXxXuXsXsXfXfX0X8X,X6X,X1X:X8X9XdXkXkXMXBXMXAXmXKXZXmXNXNXgXBXmXSXVXVXmXmXrXmXvXHXSXSXSXmXmX",
"NXmXSXmXSXmXSXmXNXmXNXmXSXmXSXmXmXmXKXVXFXcXFXAXNXmXBXjXkXaXqX].].{.D.F.F.Z.k C.Z.[ G.C.G.[.'.,X0X8XdXhXBXgXAXVXNXmXBXgXmXmXNXAXmXrXtXgXLXNXmXmXmXmXSX",
"mXNXmXmXmXPXNXSXmXNXmXHXmXNXmXmXmXVXVXAXAXAXAXFXjXBXfX6X XG.C.C..X~.oX`.OX/.a.a.`.a._.OX/.~.^.C.C. X+X6XfXBXmXKXVXSXAXSXmXSXmXmXtXtXtXSXmXSXmXmXSXNXmX",
"SXSXVXmXSXmXmXmXVXVXmXNXmXmXNXNXmXmXAXZXZXAXNXkXfX+XF.C.G.(._._._._._.).Q.E.l.=.e.E.q.W._.)._._._.!.5.Z.'.+X9XkXVXZXVXVXmXMXmXtXtXmXSXmXmXmXHXmXmXmXNX",
"aXNXVXVXmXBXmXVXZXZXVXHXmXmXNXNXjXjXVXFXVXHXkX-XF.5.a.T.Y.`._.)._.).Q.).Q.v.x.z.@.e.@.q.W.W.W.).Q.).E.v.n.@.Z.+XjXDXcXKXmXMXaXgXmXVXVXAXmXmXmXHXmXmXmX",
"NXNXKXVXSXmXHXVXcXVXFXmXBXgXmXmXNXaXSXuXBXlX[.G.`.W.@.R.e.W.).Q.Q.Q.Q.v.v.x.z.h.+.r 4 4 @.c.v.v.v.b.b.j.g.2.3.4.F.fXMXcXPXgXgXmXmXmXKXmXmXmXmXmXmXSXPX",
"gXSXpXNXHXHXmXHXVXKXmXNXgXNXmXVXvXBXgXBX-XC.!._._.).a.n.e.e.E.Q.E.v.v.x.h.h.&.e Z 2 * 4 m m @.r.l.h.x.g.j.g.=.8.3.[ 8XhXVXVXVXFXZXAXmXVXmXSXmXmXmXNXmX",
"LXzXNXmXAXmXmXyXHXmXmXgXBXgXFXVXPXsXkX{.A.OX).Q.Q.).E.@.h.$.=.x.x.z.h.r.$.e e 0 & 2 m 2 - 2 - 2 4 4 r r e r 7 2 A b F.dXFXVXbXVXFXmXFXmXHXmXNXmXmXmXNX",
"VXFXgXNXmXvXrXtXgXSXmXPXgXmXvXSXsX8XF.4./.)._.Q.E.E.b.=.T ;.#.i $.Y Z Z 0 2 2 ; M n E Q V V 9 n 2 3 - - : : ; : : N c #XMXFXZXFXFXAXmXAXmXLXmXmXmXmXmX",
"KXVXBXgXeXwXmXmXmXgXBXmXNXmXHXkX7XD.5.k.).Q.E.E.b.b.j.b.s #.r < 5 0 9 - ; n H Q K 9...|  .~ | E Q H x x x C E E C x x N.kXmXFXmXVXmXVXmXHXmXHXmXPXmXmX",
"VXZXvXpXeXpXmXLXmXmXmXAXxXBXhX:XA.S.a.a.Q.E.b.b.j.j.j.g.g.r & * > > > : B .. .' q.p.p.t.y.u. .9.| V x G R R / K ..R x c -XBXgXSXmXHXmXHXmXHXNXNXNXvXrX",
"KXVXpXrXaXpXmXvXHXxXNXMXNXkX6XC./.l.e.6.b.b.j.j.<.<.,.,.r.%.6 * C E V N G } t. .H.H.y.J.p.y.d.9.N N ....R o.|  .o.! E g }.hXjXgXSXVXAXVXNXmXmXmXpXtXtX",
"mXvXtXgXmXNXvXmXVXLXxXSXjX6XD.~.).e.e.=.>.j.<.<.1.<.,.:.;.8 > n V *.B v K q.y.J.J.J.J.J.s.d.| v E ! ! ! o.X.t.X.o.....O.[.BXgXBXmXVXAXVXmXmXmXmXrXgXmX",
"KXtXtXmXDXmXNXpXDXvXKXhXkXF.(.Q.Q.h.+.;.;.,.1.1.1.:.:.#.8 2 : K ^ 9.H N K q.s.L.P.L.L.s.d.L B ~ ^ ^ ^ w.u.X.y.X.o.o.R _ [.sXPXcXAXVXHXmXHXmXNXmXzXmXHX",
"pXNXgXNXmXSXmXPXxXNXuXBX'.S.).E.b.h.p d a ,.:.g.-.%.8 y 5 : Q } 9.i.J b L f.L.s.L.L.L.i.B Q ^ /  .9.p.p.u.X.H.X.X...R O.}.BXuXKXAXVXmXAXmXHXmXmXmXmXmX",
"PXmXBXgXSXVXPXtXMXgXkX-XC.OXb.b.j.j.d a s t T q q 8 u 5 - C Q i.u.d.K b ~ d.f.T.L.L.9.N Q E | w.i.K.p.p.p.p.X.X.R ....) -XMXLXcXZXmXZXmXHXmXmXmXNXmXLX",
"tXPXNXNXnXFXmXLXMXhX0XC.!.Q.b.>.j.,.;.i 5 6 > C 9 > ; / E x H t.s.s.L D L i.f.T.d.K N Q | o.u.K.K.J.y.y.p.u.o.o...K D M.fXPXgXNXVXHXmXFXmXNXmXNXmXSXtX",
"BXmXPXmXVXVXKXvXNXfX+XS.Q.b.2.1.1.>.:.7 > > ; > 9 V ^ w.| N H 9.s.p.} N G i.d.w.B F ' } p.p.K.K.K.y.H.K.p.u.u..._ D ] >XkXmXmXMXAXmXKXmXHXmXHXmXHXmXPX",
"vXHXVXDXmXSXVXKXgXfXC.`.b.2.j.<.<.,.p 5 * > C x E ~ 9.t.u.K v ..t.u...z F w.w.N v Q t.s.d.L.K.K.p.X.K.K.p.u.{ ) k B.4XBXhXPXzXFXFXVXmXHXmXmXmXHXmXmXmX",
"NXmXVXVXVXVXFXmXBX,XS.Q.h.1.>.j.>.p 7 * : > x C B K 9. .p.9.z Q  .u.G z S ' b b K 3.i.L.P.L.P.P.I.H.H.H.{ ) N.{.7XdXAXmXSXpXFXbXZXVXVXmXHXmXNXmXNXNXSX",
"jXmXnXmXVXVXZXNXlX+XS.c.g.:.-.#.t < > x x n x b F G V !  .o.G x _ _ D D ] ] ) c S y.s.y.I.I.N.A.N.N.B.{.}.3XfXBXhXBXNXSXmXNXVXVXFXbXmXNXNXNXmXNXmXmXpX",
"NXgXNXVXVXcXFXmXkX{.h @.&.i u 8 < & x C | } t. .G N V C Q .._ f ) H.XX@X7X8X;XXXH.) [ M.F.Z.F.}.3X3XdXhXBXmXHXVXVXmXNXmXSXmXSXFXFXVXSXmXSXmXAXmXNXmXPX",
"VXZXVXZXVXFXZXKXkX:X[ ` I f 3 - 3 n H L } 9.u.u.i.} x C n G S ' XX<X1X7X8XdXhXfX9X-X].8X8XfXhXBXgXmXcXAXbXFXbXVXmXNXNXBXgXSXmXSXmXVXmXVXmXNXmXMXmXNXpX",
"FXVXKXZXZXbXFXvXBXdX1XF.G.5.h h c D h S ` _ _ ..t.q.E : F f A.%X<X;X:X8XhXkXBXBXPXMXyX&XBXmXVXvXLXFXFXbXbXnXFXSXNXmXBXgXBXtXmXmXmXmXHXmXNXmXAXmXNXmXPX",
"uXBXgXgXNXPXvXLXpXHXMXBXdXfX3X3X}.{.B.B.B.M.] O.g f V m # { %X#X$X#X3X8X8XkXBXBXLXLXLXiX*XkXmXDXvXFXbXFXnXVXmXmXgXNXaXmXgXSXVXFXmXNXmXHXmXDXmXmXmXNXtX",
"jXgXBXBXNXgXNXpXKXzXKXuXKXuXBXhXAXMXBXhXBXdX4X;XM.  . z D XX#X#X#X<X7X4X8XkXBXBXLXLXLXKX&XsXlXlXNXmXBXgXBXgXgXpXkXjXjXrXmXtXVXbXjXmXNXmXSXvXNXmXNXmXLX",
"xXNXmXmXNXNXvXmXvXLXmXKXmXmXBXmXMXMXhXKXiXMXiX5XdX:X#   N.%X@X@X@X<X3X4XdXfXkXBXLXLXMXPXiX=X2X0X0X8X5XdX8XlX8XjXdXsXwXaXgXSXKXHXhXgXmXZXmXFXmXNXmXNXvX",
"KXZXAXZXVXmXNXjXNXpXHXzXLXmXvXmXNXmXMXmXMXyXuXrXVXhX}.  '.<X%X@X@X1X8X4X8X8XfXBXBXPXLXPXMXB.k V.D.D.D.D.D.[.D.D.V.V.[.].-XsXdXkXlXgXAXVXVXbXnXNXNXNXHX",
"cXZXVXAXmXNXNXBXmXBXgXjXmXnXVXFXMXMXnXnXmXyXeXNXvXkX1Xl }.3X@XXX@X#X>X7X7X0X9XlXjXBXlXkXfXF.4.Y.^.^.^.~..XoXoX X X X X XD.D.F.$X9XsXBXFXcXVXjXNXmXmXmX",
"FXmXAXVXNXmXSXgXmXmXNXgXNXmXZXbXmXgXnXtXpXyXnXjXhX8X|.g 3X3X<X$X@X#X1X1X1X6X6X0X9X0XfXfX9XF.3.6.a.T.Y.!.!.(.^.U. X(.oXoXOX~.5.4.].kXMXmXFXVXnXjXAXAXKX",
"zXFXVXmXVXVXmXKXmXMXmXPXmXVXZXZXmXFXnXnXzXKXmXkX4X{.f   }.3X<X@XXX#X<X1X1X7X7X7X7X8X8X8X0XA.P 8.a.k.T.T.!.!.!.U.oXoXoX(.!.!.Y.S.m.4XhXKXZXFXmXNXmXVXxX",
"LXmXSXnXVXmXKXtXMXNXNXtXHXVXZXAXLXxXFXvXgXlXkX,XN.f . . {.9X,X#X@XXX#X;X<X1X1X7X7X7X3X7X<X[ P e.l.k.k.c.Y.Y.!.!.(.(.oX(.(.Y.a.I.k }.MXAXZXbXpXNXNXmXLX",
"tXSXmXAXmXHXmXLXVXAXmXFXxXVXmXNXMXMXdXfX,X.X[ ) z O X . [ 2X2X:X$X$X$X@X#X;X<X>X1X>X>X<XXXS @.8.e.l.l.l.c.T.Y.!.(.(.(.!.Y.k.6.5.j ].hXKXvXFXaXjXmXSXzX",
"BXgXmXmXKXmXSXuXmXmXKXAXHXmXkXlX8X&X{.N.4.{ 0.J ; , , O # XX6X6X$X$XXX@X#X#X#X,X,X>X<X%X5.I 8.e.n.l.l.l.c.c.T.!.!.!.!.!.k.6.6.6.l }.BXcXzXnXjXjXmXmXKX",
"gXHXZXFXVXNXgXBXmXHXVXzXmXBX6X].C.S.I.^.Y.f./ M - > 9 : # S 1X6X-X$X@X@X@X#X#X;X;X,X%XXXf b =.r.l.l.c.x.c.T.c.T.c.T.a.a.a.e.@.I j >XhXxXrXvXjXjXgXAXmX",
"SXNXZXZXFXNXjXaXmXSXcXVXBX-XD.G..X~./.T.l.w.U 7 C / V 9 & # N.,X,X,X#X#X@X#X#X#X<X<X@XD 3 < r =.h.c.c.x.z.x.c.c.c.c.a.8.q.@.J f N.3XiXtXmXnXNXaXNXVXFX",
"gXmXVXSXmXNXNXnXnXmXFXKXiX[..XoX.X^./.c.-.Y 4 A 0.0.&.A 0 + # ) #X0X2X<X1X>X1X%X%X.X` S $.e r t +.=.r.z.g.x.x.f.f.i.q.&.~ 3 v h ,XeXyXmXmXPXmXmXmXmXmX",
"mXBXKXVXVXmXNXjXNXnXZXBX=X[..X~..X~.T.8.$.7 &.l.a.f.8.w.m + @ f j C.@X%X<X<X@X|.{ D ' 0.e.-.#.%.+.Z r r Z $.&.&./ / W 0 4 @ @ ] 5XtXtXmXmXNXNXmXNXmXPX",
"mXmXmXZXmXDXjXNXNXSXnXPX&XD.OX^.^.Y.e.+.2 &.z.f.l.l.8.r.m @ +.I b f f D S b ` D ` K 0.e.r.f.r.r.*.%.$.s i 8 6 = < = % * O : ) }.iXmXgXSXuXSXmXSXmXHXpX",
"NXAXFXZXHXpXjXgXNXNXKXgXsXm.F.^.Y.a.J 2 &.f.f.k.f.f.r.r.B 3 =.@.@.+.A P 3 @ B @.q.r.f.r.r.z.f.r.-.-.#.i i T ( y y 1 % % 9 f {.4XhXmXHXmXSXmXmXmXHXvXLX",
"mXMXcXFXZXHXmXNXmXmXxXBXfX].l 4.6.I 3 H i.i.s.i.f.f.r.w.U m e.q.8.0.7.J H 4 4 =.r.r.h.r.r.f.f.r.*.*.%.T i y > y = % % * h F.8XkXmXSXmXHXmXmXmXmXmXPXtX",
"ZXcXAXZXHXxXjXgXgXmXmXMXkX7Xk l h 4 f q.} q.q.3.q.q.8.&.Z 4 w.a.0.q.8.w.&.Z 4 r =.r.-.r.r.*.*.*./ T u y y y = % = 1 r z F.8XhXmXmXmXHXmXHXmXNXmXSXpXLX",
"VXxXcXZXmXNXgXgXmXSXVXSXsXkX6Xk f O v N A F I @.L @.&.$.e < q.7.7.7.w.w.7.*.Y 2 e *.%.%.*.%.T i i u 6 * , ; 6 y 1 y D {.fXmXpXLXVXmXmXmXmXNXmXmXmXNXvX",
"AXZXZXAXAXtXeXeXSXNXmXmXSXlXkX+X[ b @ @ 2 4 m B B m 0 0 e * B E W W &./ %./ M T < * U %.T i y 8 = = = q / U q 0 m P $XhXLXbXKXVXKXmXAXmXHXmXNXmXmXmXHX",
"mXVXSXSXpXwXaXNXmXNXFXVXVXNXhXkX3XM.f : , * - : - : ; 5 > * - 4 m m m M Z M ( 6 5 & & 5 7 7 < * < i u y 6 6 J b A.7XhXhXAXAXcXKXAXVXmXVXmXAXNXNXmXmXrX",
"nXmXSXtXrXpXmXmXVXVXFXbXFXmXmXMXBXdX{.c @ ; M M Z e 9 5 5 2 & 7 + - * : ; 9 & > & 5 & , $ % y i t < q E N F 3.XX9XBXAXMXAXcXmXZXVXmXAXmXFXmXVXmXmXmXmX",
"mXmXpXrXrXNXmXmXmXFXbXFXcXFXmXmXmXjXkX8XM.c B 8 t i s #.%.%.%.T %.T 7 5 * * O , * & 7 i #.%.i 1 i 8 ' ) [ $X2XkXkXhXxXPXmXNXVXFXmXVXmXZXmXVXmXZXpXtXtX",
"mXpXpXrXNXmXmXmXVXnXFXbXFXVXFXVXDXmXZXmXkX$X{ K m e r r 7 t 8 1 u 0 U U y 8 u 8 e u Z e 8 8 y T V P A.$XfXlXNXmXMXmXLXmXNXpXSXbXVXZXFXmXKXmXVXmXrXmXSX",
"NXjXrXNXmXAXmXAXmXNXmXFXbXVXVXVXjXnXmXVXxXPXkX:X{.N.` F M Y T 8 Y 0 u u 8 1 t 8 e 0 m F S ' 5.I.}.9X8XkXiXPXBXpXnXDXnXnXnXFXSXSXmXAXmXKXmXAXmXVXpXmXmX",
"nXmXNXpXHXmXAXmXmXnXDXmXSXmXFXZXPXmXNXmXFXbXFXNXBX8X;XXXH.} L P f b b H H H A E K 3.H.I.XX>X7X9XBXhXBXhXKXtXSXSXDXnXnXnXDXnXmXmXmXmXHXmXVXmXVXmXmXHXHX",
"mXHXNXNXmXAXAXVXmXnXpXNXgXSXVXmXuXMXmXFXFXFXbXPXMXhXhXfXfXfXdX8X6X7X:X>X>X7X3X8X9XfXfXlXsXgXBXBXjXNXgXAXcXKXZXZXVXDXcXFXZXMXgXMXNXAXVXHXmXAXmXmXAXmXmX",
"NXmXSXmXHXmXAXmXBXmXjXgXmXMXmXtXgXmXDXVXnXnXSXmXMXMXNXmXZXHXVXVXSXSXPXmXAXHXKXmXSXVXVXVXVXmXnXVXnXvXzXtXAXcXFXZXFXVXAXZXAXmXMXBXSXVXAXmXVXVXAXVXVXVXmX",
"mXNXmXmXmXHXmXHXmXSXmXmXNXmXtXrXmXmXmXHXVXVXVXAXmXNXmXAXmXVXZXAXmXmXmXNXmXNXmXVXSXVXVXSXmXmXVXSXvXtXrXxXVXFXZXZXVXAXVXFXVXAXmXNXVXVXVXAXmXmXmXNXSXmXmX",
"HXmXHXmXHXmXmXmXSXmXNXmXmXyXtXmXVXAXAXVXVXmXHXVXAXmXAXmXAXmXSXVXNXmXSXmXSXmXSXmXmXmXmXmXSXmXNXmXrXtXVXmXKXmXmXZXVXmXAXmXAXmXAXmXAXNXFXmXNXmXAXNXmXSXNX",
"mXNXmXHXmXHXNXHXmXmXmXHXyXrXpXmXVXKXmXHXmXVXmXSXmXHXmXFXmXAXmXVXmXSXmXSXmXSXmXmXmXNXmXSXmXSXvXtXrXVXVXKXmXVXmXAXVXHXmXSXmXFXmXVXmXAXmXVXmXNXmXNXmXmXmX",
"HXmXHXmXHXmXmXmXSXmXSXrXtXpXHXmXAXmXZXmXVXmXKXVXVXVXKXmXKXmXKXVXmXmXNXmXSXmXSXmXSXmXNXmXHXtXvXtXvXvXVXmXVXmXAXZXVXVXZXmXHXmXAXZXVXmXKXmXNXmXHXmXmXSXNX",
"mXmXmXHXmXHXmXHXmXSXtXpXpXLXmXmXmXNXmXHXmXHXmXSXmXNXmXSXmXSXmXmXmXHXmXSXmXHXmXNXSXmXmXHXvXmXtXvXmXSXmXmXxXHXmXNXmXHXmXSXmXHXmXSXVXAXmXFXmXmXmXmXmXmXmX",
"HXmXHXmXHXmXmXmXmXmXmXtXHXmXmXmXmXmXmXmXLXmXHXmXSXmXSXmXNXmXSXmXmXmXSXmXNXmXSXmXmXmXNXmXSXeXmXmXmXmXNXmXNXmXHXmXSXmXSXmXmXmXNXmXVXmXAXmXNXmXHXmXmXHXHX",
"mXNXmXSXmXHXmXHXmXNXmXSXmXSXmXNXmXNXmXNXmXHXmXmXmXmXmXSXmXHXmXmXmXHXmXHXmXmXmXmXmXmXmXSXmXmXmXSXmXSXNXHXmXmXmXmXmXSXmXNXmXSXmXSXVXAXmXHXmXHXmXmXNXmXmX",
"SXNXSXmXSXmXNXmXmXmXSXSXmXmXSXmXmXmXmXmXmXmXSXNXmXmXNXmXmXmXNXmXSXmXmXmXNXmXNXmXSXSXSXmXmXSXmXmXSXmXmXmXmXmXmXmXSXmXmXmXmXmXmXmXVXmXVXVXHXNXmXmXmXmXNX",
"mXSXmXSXmXSXmXNXmXmXNXSXmXSXmXmXNXmXmXmXmXHXmXmXtXmXmXmXmXHXmXmXmXNXmXHXmXmXmXNXmXNXmXSXmXmXmXNXmXSXmXSXmXSXmXmXHXmXvXwXtXSXNXmXmXAXVXVXmXNXmXmXmXmXmX",
"mXNXmXSXmXSXmXSXmXSXmXSXmXmXmXSXSXNXmXmXmXNXzXtXtXvXSXmXHXmXmXNXmXmXHXvXHXmXSXmXmXmXHXmXHXmXHXmXmXmXSXmXPXmXNXmXmXgXtXtXmXHXmXHXmXHXmXAXmXSXmXSXmXHXmX",
"mXSXmXSXmXSXmXmXmXNXmXSXmXmXmXSXmXHXmXNXmXmXwXgXpXKXpXLXtXLXmXHXmXHXuXLXtXLXmXSXmXHXpXLXtXLXvXHXmXPXtXLXtXLXpXSXvXtXeXSXmXHXvXHXmXAXmXVXmXNXmXNXmXNXvX"
};
