/* XPM */
static char *f40f7b14e6ba42f9fc066d4ea37f69fe3IBijAZjI09gUGsg[] = {
/* columns rows colors chars-per-pixel */
"75 75 251 2 ",
"   c #CC783F",
".  c #BC7A4F",
"X  c #B6786F",
"o  c #C87749",
"O  c #D57A4C",
"+  c #CD7453",
"@  c #C87C55",
"#  c #EA7E54",
"$  c #CC7366",
"%  c #EA7F63",
"&  c #BB983C",
"*  c #DEAD0C",
"=  c #E7A90B",
"-  c #E4AD0C",
";  c #EAAD0D",
":  c #E7B207",
">  c #E5B10D",
",  c #EAB20D",
"<  c #F1B70E",
"1  c #E4AE13",
"2  c #E9AE15",
"3  c #EBB413",
"4  c #EEB915",
"5  c #E9B519",
"6  c #F4B817",
"7  c #F3BC16",
"8  c #F5BE1C",
"9  c #FABE1C",
"0  c #D6863C",
"q  c #D19334",
"w  c #E79E2C",
"e  c #DFB42C",
"r  c #CBA937",
"t  c #D8AC36",
"y  c #DDB737",
"u  c #E6B626",
"i  c #EDBC23",
"p  c #EEBD2C",
"a  c #F5BE22",
"s  c #FABE23",
"d  c #F8BA25",
"f  c #F3BE2B",
"g  c #E8A834",
"h  c #ECBC34",
"j  c #E5B838",
"k  c #EBBD3C",
"l  c #F4BD36",
"z  c #EDC11B",
"x  c #F5C116",
"c  c #F9C116",
"v  c #F6C11C",
"b  c #F9C11C",
"n  c #EDC128",
"m  c #F5C222",
"M  c #FAC222",
"N  c #F3C22B",
"B  c #FAC32A",
"V  c #F7CA29",
"C  c #EDC134",
"Z  c #E9C33A",
"A  c #F4C333",
"S  c #FAC333",
"D  c #F3C43B",
"F  c #F8C939",
"G  c #FED03E",
"H  c #BD8D54",
"J  c #BFA24C",
"K  c #BAA459",
"L  c #BDA266",
"P  c #C58849",
"I  c #D8884B",
"U  c #CD974A",
"Y  c #DB964B",
"T  c #C88755",
"R  c #D98855",
"E  c #CA9857",
"W  c #DA9556",
"Q  c #EC8E53",
"!  c #EB845B",
"~  c #E68858",
"^  c #E79554",
"/  c #CAAB4D",
"(  c #DAB749",
")  c #CAAE51",
"_  c #C7AA59",
"`  c #D9A859",
"'  c #DBBA53",
"]  c #D8B95A",
"[  c #E8BC45",
"{  c #E3BD4D",
"}  c #E4A859",
"|  c #E5BD52",
" . c #E7BC58",
".. c #F2B352",
"X. c #DA8567",
"o. c #C79A64",
"O. c #D2927B",
"+. c #EA8866",
"@. c #F68B6A",
"#. c #ED9368",
"$. c #F4946D",
"%. c #F9936C",
"&. c #F4986B",
"*. c #E68D77",
"=. c #F68E73",
"-. c #ED9776",
";. c #F59473",
":. c #FA9474",
">. c #F59973",
",. c #FB9A74",
"<. c #F69479",
"1. c #FA957A",
"2. c #F49A7A",
"3. c #FD9B7C",
"4. c #C9A665",
"5. c #D5A669",
"6. c #CDB866",
"7. c #D8BC67",
"8. c #CEA973",
"9. c #CDB974",
"0. c #D6B97C",
"q. c #ECAF6D",
"w. c #E7B866",
"e. c #F6BE67",
"r. c #DCC25D",
"t. c #EAC646",
"y. c #ECC44B",
"u. c #F4C543",
"i. c #F5C746",
"p. c #FBCC44",
"a. c #F4CB4B",
"s. c #FBCC4C",
"d. c #FCD143",
"f. c #F6D24D",
"g. c #FDD24D",
"h. c #EBC354",
"j. c #E6C857",
"k. c #E3C45C",
"l. c #ECC55B",
"z. c #EBCB5C",
"x. c #F2C557",
"c. c #F5CB53",
"v. c #FCCE54",
"b. c #F4CC5C",
"n. c #FBCE5B",
"m. c #F7D255",
"M. c #FCD254",
"N. c #F8D953",
"B. c #F4D25B",
"V. c #FCD35C",
"C. c #FED85D",
"Z. c #DDC363",
"A. c #D7C36A",
"S. c #DCC36B",
"D. c #DDC374",
"F. c #D8C679",
"G. c #DBC47C",
"H. c #E4C463",
"J. c #ECC662",
"K. c #ECCC63",
"L. c #E7C969",
"P. c #F2CB62",
"I. c #FACD63",
"U. c #F7C768",
"Y. c #F2CD6B",
"T. c #EDD267",
"R. c #F5D363",
"E. c #FCD564",
"W. c #FCD965",
"Q. c #F4D36A",
"!. c #FCD46B",
"~. c #F6D968",
"^. c #FDDA6C",
"/. c #E5C779",
"(. c #FBC875",
"). c #EAD278",
"_. c #F4D474",
"`. c #FDD572",
"'. c #FDD973",
"]. c #F3D57A",
"[. c #F9D979",
"{. c #27A3E0",
"}. c #BF9589",
"|. c #D29387",
" X c #E79C84",
".X c #FA9983",
"XX c #D7BE85",
"oX c #D1B396",
"OX c #FFA788",
"+X c #D9B7AA",
"@X c #E7B5AD",
"#X c #DBC484",
"$X c #DBC984",
"%X c #D9C688",
"&X c #D9C897",
"*X c #DCCD95",
"=X c #DCD29A",
"-X c #E3CB83",
";X c #E4C885",
":X c #E2CD8C",
">X c #FEC481",
",X c #EAD387",
"<X c #F8D988",
"1X c #E4CA96",
"2X c #E8D598",
"3X c #F5DC98",
"4X c #FEE489",
"5X c #FEE998",
"6X c #DDD2A5",
"7X c #DBD0AC",
"8X c #E6CFAF",
"9X c #E3D3A4",
"0X c #E8D8A7",
"qX c #ECDCAC",
"wX c #F2DBA7",
"eX c #E7D9B7",
"rX c #EDDBB3",
"tX c #FAE5A9",
"yX c #EFE3B5",
"uX c #F5E6B9",
"iX c #FFF3B9",
"pX c #DBD8C9",
"aX c #E8CBC5",
"sX c #E8D7C8",
"dX c #E8DBD6",
"fX c #F1D9D6",
"gX c #F7E9C5",
"hX c #FEF4C9",
"jX c #ECE4D4",
"kX c #F9EBD4",
"lX c #FEF3D5",
"zX c #FFF9D9",
"xX c #EAEBE7",
"cX c #EDEDEC",
"vX c #F7ECE4",
"bX c #F3ECEC",
"nX c #EDF1EC",
"mX c #FBF4E7",
"MX c #FFFDE4",
"NX c #F2F2EC",
"BX c #FFFDEB",
"VX c #EBEFF3",
"CX c #F6EFF3",
"ZX c #EDF2F3",
"AX c #F4F4F5",
"SX c #FDF5F4",
"DX c #FEFBF2",
"FX c #F5F5FB",
"GX c #F7F8F8",
"HX c #F6FAFD",
"JX c #FDFCFD",
/* pixels */
"{.{.{.{.{.{.{.{.{.{.{.{.{.{.{.{.{.{.{.{.{.{.{.{.{.{.{.{.uX3X] ) ) 6.<XtXtX2X7._ K A.3XiXzXMX{.{.{.{.{.{.{.{.{.{.{.{.{.{.{.{.{.{.{.{.{.{.{.{.{.{.{.{.{.",
"{.{.{.{.{.{.{.{.{.{.{.{.{.{.{.{.{.{.{.{.{.{.{.{.{.{.gX6X%X-XT._.].)./.S././.).].).).$X$X6XyXMX{.{.{.{.{.{.{.{.{.{.{.{.{.{.{.{.{.{.{.{.{.{.{.{.{.{.{.{.",
"{.{.{.{.{.{.{.{.{.{.{.{.{.{.{.{.{.{.MXuX=X$XF.F.$X,XG.0.7.L.K.k.z.j.k.' ] H.H.K.z.z.r.A.A.F.2X:XXX#X%X*XyX{.{.{.{.{.{.{.{.{.{.{.{.{.{.{.{.{.{.{.{.{.{.",
"{.{.{.{.{.{.{.{.{.{.{.{.{.{.{.{.MXuX=X9.6.A.] ]  .H. .J.'.Q.Q.^.^.W.~.j.R.~.^.W.^.B.B.W.L.r.A.A.7.Z.r.6.9.*XgX{.{.{.{.{.{.{.{.{.{.{.{.{.{.{.{.{.{.{.{.",
"{.{.{.{.{.{.{.{.{.{.{.{.{.{.{.BXqXF.6.S.Q.!.`.`.`.| I.^.E.E.W.R.W.E.R.{ V.E.!.I.I.!.E.W.^.J.' '.W.~.~.Q.H.6.#X0X{.{.{.{.{.{.{.{.{.{.{.{.{.{.{.{.{.{.{.",
"{.{.{.{.{.{.{.{.{.{.{.{.{.BXMXqX6.S.Y.^.!.I.!.`.!. .I.E.C.E.W.^.Q.!.E.{ E.!.!.!.`.!.E.E.W.n.| !.E.B.R.!.!.Y.7.9.qX{.{.{.{.{.{.{.{.{.{.{.{.{.{.{.{.{.{.",
"{.{.{.{.{.{.{.{.{.{.{.{.zXlXwX9.7.I.^.E.I.!.!.!.`.| Q.'.~.E.!.Q.!.!.E.{ E.!.!.`.!.!.I.W.^.E.{ ~.~.E.!.E.!.`.!.w.6.tX{.{.{.{.{.{.{.{.{.{.{.{.{.{.{.{.{.",
"{.{.{.{.{.{.{.{.{.{.kX9X:X-XD.7.!.!.E.E.!.E.Q.W.`. .z.Q.!.Q.!.!.!.!.E.{ E.E.I.!.!.!.Q.!.E.b.h.^.Q.~.E.!.!.!.!.`.] S.:X=X7X{.{.{.{.{.{.{.{.{.{.{.{.{.{.",
"{.{.{.{.{.{.{.{.{.6X%X).S.L.r.K.!.!.!.!.E.E.W.R.W.j.z.W.!.E.E.E.!.E.n.[ C.C.M.E.W.E.E.!.^.b.h.!.!.!.W.E.W.!.!.!.b.' K.D.G.$X=X{.{.{.{.{.{.{.{.{.{.{.{.",
"{.{.{.{.{.{.{.{.&X$XS.k.R.T.' Q.!.!.!.!.W.E.C.N.N.t.a.C.C.C.M.s.v.s.a.u.g.g.s.d.g.M.V.W.W.b.y.C.!.!.E.E.W.E.E.!.R.{ Q.T.S.A.F.=X{.{.{.{.{.{.{.{.{.{.{.",
"{.{.{.{.{.{.{.6XF.S.~.W.V.!.l.l.~.R.Q.!.E.W.C.M.N.D D g.s.F A f f p f 5 N N m z n N F s.M.u.D g.M.C.E.W.W.R.Q.!.l.P.!.!.^.T.S.A.=X{.{.{.{.{.{.{.{.{.{.",
"{.{.{.{.{.{.0X#X7.Q.^.B.^.^.h.l.!.W.!.^.E.v.F F C i u l S s s s v a 6 1 v v x x z v m A A u i A A p.s.E.^.~.~.'. .K.!.!.W.^.~.Z.G.0X{.{.{.{.{.{.{.{.{.",
"{.{.{.{.{.{.$X7.Q.Q.!.!.!.`.I.| !.^.E.M.s.D f a B i 2 a a s 8 9 b M 9 - b b c b x v a a f 2 i d a N A a.E.!.!.!.| E.E.!.'.!.!.Y.7.%X{.{.{.{.{.{.{.{.{.",
"{.{.{.{.{.%XD.H.'.!.!.!.`.!.I.| E.E.M.s.A f a M v 8 - s v m s b 9 9 8 - 9 b 8 8 v v 9 M m 3 s s 9 a B l s.E.!.I.( ^.~.Q.`.`.!.'.L.7.$XrX{.{.{.{.{.{.{.",
"{.{.{.&XG.4XH.P.!.`.!.Q.!.^.W.{ n.v.p.S a 9 v b 8 c > c v v v m M b 8 - m M a a M 8 c c 8 ; 9 9 c 8 8 a B d.M.c.y.W.W.!.Y.!.!.`.U.H.4X:X=X{.{.{.{.{.{.",
"{.{.*XF.r.r.( Y.!.`.`.W.E.C.C.k k F S a b b v c b v - v v c 8 b v m 8 - 8 M a s M 8 c 9 7 : 9 b b c b 9 b B S u u.C.V.C.R.`.`.`.!.( 7.A.F.=X{.{.{.{.{.",
"{.qX6.k.Y.'.z.h.!.!.`.~.E.M.p.i 2 f a m 8 b 8 M b M 3 8 8 v 8 v v v a 2 a M b c 8 v B 8 8 ; b b x x b 8 M 8 B 1 p u.g.C.R.!.`.`.x.h.`.[.Z.6.qX{.{.{.{.",
"{.0.Z.~.!.!.K.y.!.!.!.E.M.F B a 2 M a v c v v v 8 v 3 6 v v 8 v v 8 a ; 9 b b c c c M a 8 6 b c c x b c b a a 2 N N A g.C.!.`.`.{ E.!.Q.~.r.9.{.{.{.{.",
"tX_ Y.^.!.E.W.| n.W.W.C.p.p a M 3 8 m b v c M c M M 6 3 b c 8 b b b 9 ; 9 9 9 7 v 8 m M 2 5 c c x v v v a M 6 3 m i p p.M.C.!.Q.| E.!.~.W.K.K uX{.{.{.",
"A.) _.~.W.E.!.b.y.C.C.g.N a a a 5 3 M m m v m v v m 6 > M 8 v c b 9 9 ; 9 9 c 9 c v a M - 8 x x x v 8 v s M 3 6 M a m A g.M.W.x. .!.!.^.Q.[._ *X{.{.{.",
"r k.^.~.E.!.!.I.[ f.i.F a m m a 8 1 M b v b v v M M 8 - v 8 c b c b s 2 a 9 b c c x x b > x v z z v 8 M M M , 9 c m m i F d.g.[ I.!.!.R.!.`.Z.G.{.{.{.",
"& B.~.^.R.E.!.E.k C N m 7 c v m a - m v v M 4 m 8 M 8 - v v v b v M a 2 8 s 9 c c c c v - s v v v m m M M 6 , c c c v v M A A h !.!.W.R.!.'.Y.G.{.{.{.",
"r M.B.^.n.E.E.V.k 5 v b c 7 8 M m 3 4 m v M v v 8 M 8 3 8 c c v v m 8 2 8 8 9 9 9 9 s d 2 s M b v M M m M 3 3 7 c v 8 v m m 5 h M.E.E.W.E.!.`./.{.{.{.",
"{ E.E.W.R.E.E.s.f 1 M b c c 9 M s 5 3 v v v M v 8 b a 3 4 v x v v v v - 8 9 9 9 9 s s d 5 s m V m m M m m , 7 b 8 c v c 8 m 1 p a.C.W.V.E.`.(.;X{.{.{.",
"(.Y.W.C.!.R.C.D N 3 , 9 b c M 9 a s - v 8 m b M b v M 3 3 b v x x x v 3 8 m v v c v M 3 6 9 v x M M v m 8 , b 7 c c 9 b b 5 3 f F m.V.W.V.`.,XwX{.{.{.",
"tX0.^.E.~.^.s.N m 8 ; 9 8 b 9 M M a > 6 b 8 b M v m M 4 1 c v x x x 8 5 5 m v v v c 8 : 4 v x v b v v b 6 , b 8 b 8 9 9 M ; a M N f.W.~.E.'.q.gX{.{.{.",
"{.#X].~.!.W.a.n m 9 ; 6 v v 9 b M a 6 > b 8 M b b m M 8 1 v c 8 c 9 M 6 5 v z x c x b - v m m z m v b v , 6 b 9 b 9 8 b 8 2 s s p i.~.W.~.].XX{.{.{.{.",
"{.rX/._.'.B.g.n M 9 8 ; m 8 M M M 8 v - c 8 b 8 b m m M - 8 v b b b s 6 5 m v x c b 8 ; M m m v v v b 8 - c b v 9 M 8 M - 6 M a N p.E.'._./.rX{.{.{.{.",
"{.{.0.]._.R.g.V a 8 B - 8 v 8 b 9 b b , 4 b b v a v m M 3 4 v b 9 9 a 6 > z v x c 8 8 2 s s b 9 v b b 6 > c v 8 v M m 8 - s 9 m A s.^._.].%X{.{.{.{.{.",
"{.{.0XF.[.V.M.S m m m 4 3 b 8 b 8 a 8 4 , b 8 b 9 m M M 4 3 8 m s f A h y C Z C A N d 2 s 9 9 9 b v c 3 3 b v v m 8 M 3 3 9 b a S M.E.[.D.2X{.{.{.{.{.",
"{.{.{.G.[.E.C.p.f m m m > x x v b v b 8 > 7 v v v a m a a 1 M m A y ( J K o._ ) { j u m M s 8 M v b 7 , 8 c v v b 8 v > v v c a p.C.Q.].G.hX{.{.{.{.{.",
"{.{.{.0XD.^.V.s.N i n M 3 , b v b 8 b c , , b v 8 M M 8 M 1 N Z r ) $XqXkXkXeX1X_ / r C m m 8 m 9 v 7 > v c m b b m 3 , v b 8 N M.V.[.D.2X{.{.{.{.{.{.",
"{.{.{.{.*X].!.E.F p a M 9 ; 7 c c v c x z * v c 8 8 m m a u k / %XzXMXBXJXJXmXmXkX&XK ] Z n m v v M , < x b 4 M b 7 : 7 c a m F N.R.<X1XkX{.{.{.{.{.{.",
"{.{.{.{.{.0.<X~.M.A m M 9 7 , x b v x v z 5 i V B a M V C j & 2XMXJXJXHXHXJXDXAXAXNX7XK { n i M B a > c c v M s 9 6 < 9 b M n M.C.[.9.uX{.{.{.{.{.{.{.",
"{.{.{.{.{.9X/._.V.f.n m x x : z 8 M s a p D k y.u.N V 5 C / %XMXDXHXHXHXJXJXJXGXZXnXjX&XJ [ f m f i > x x c M a s = s 9 m f M.E.[./.2X{.{.{.{.{.{.{.{.",
"{.{.{.{.{.{.%X).!.C.D n v c z > M 9 6 B G i.[ c.u.F V n t.K zXAXHXFXAXDXSXSXFXJXZXxXnXgX%X7.i.S l n N v c 8 a M 5 d 8 s a A E.`.).$XzX{.{.{.{.{.{.{.{.",
"{.{.{.{.{.{.{.;X].E.g.A m m V > 8 B N S u.s.t.k d.V V Z ' 0.BXJXJXJXSXCXSXSXSXJXAXcXZXxXeXG.c.F l D G N 8 n n v : b z n D M.C._.%XgX{.{.{.{.{.{.{.{.{.",
"{.{.{.{.{.{.{.rX$XL.W.p.l d m 5 3 i f F s.a.y.t.C n A t._ rXDXJXFXGXSXBXSXJXJXFXDXnXVXnXpX%X| l [ i.G F n m m 3 z z V n a.^.Y.D.uXBX{.{.{.{.{.{.{.{.{.",
"{.{.{.{.{.{.{.{.0X/.'.M.D f a M 2 6 B A i.f.v...h S G t._ uXDXGXFXAXBXDXAXAXFXFXNXnXVXnXpX&X( h s.s.i.p.n f 4 > z x n C B.'./.qXBX{.{.{.{.{.{.{.{.{.{.",
"{.{.{.{.{.{.{.{.{.wX/.`.V.F f a 9 - a A d.i...s.u F A y._ uXMXGXGXHXGXGXHXHXHXFXnXnXxXxXpXoX| u D k l F N B 1 8 m z V N.'.7.qX{.{.{.{.{.{.{.{.{.{.{.{.",
"{.{.{.{.{.{.{.{.{.{.wXw.'.M.F m 9 < 3 a F C u.s.u d i y._ 9XMXDXDXJXJXJXJXJXFXJXCXxXcXcXpXL ( 1 i V a 8 s 2 6 d m F M.~.D.wXMX{.{.{.{.{.{.{.{.{.{.{.{.",
"{.{.{.{.{.{.{.{.{.{.{.0X7.Q.C.A a 9 > i i p f S a = f [ _ &XmXbXJXJXJXJXFXJXFXCXNXbXNXdXeXL { u m v b M 6 ; d S D C.!.A.0XzXBX{.{.{.{.{.{.{.{.{.{.{.{.",
"{.{.{.{.{.{.{.{.{.{.{.{.gX$XL.^.D n 8 1 m V m m 8 i d [ 5.L kXmXSXFXJXHXCXCXCXbXcXCXbXsXoXH w d N M s b = a p Z ^.L.%XgXBXNX{.{.{.{.{.{.{.{.{.{.{.{.{.",
"{.{.{.{.{.{.{.{.{.{.{.{.{.hX:XS.B.f.C u 5 n N h f g w Y 5.O.+XvXbXZXZXZXVXVXbXCXCXVXdXaXO.T I w w g l 2 i n s.Q.S.*XlX{.{.{.{.{.{.{.{.{.{.{.{.{.{.{.{.",
"{.{.{.{.{.{.{.{.{.{.{.{.{.{.lX3X7.b.c.j t h ..g q Y ^ &.-.-.|.@XvXnXVXxXZXZXVXcXxXdXdXoX|.-.&.Q 0 0 ..g [ s.P.S.tX{.{.{.{.{.{.{.{.{.{.{.{.{.{.{.{.{.{.",
"{.{.{.{.{.{.{.{.{.{.{.{.{.{.hXtX<X7.J.e...} Y W &.>.$.,.2.*.|.|.+XfXmXbXmXNXdXdXdXaX}.|.-.-.%.%.,.&.~ ....P.] <XuX{.{.{.{.{.{.{.{.{.{.{.{.{.{.{.{.{.{.",
"{.{.{.{.{.{.{.{.{.{.{.{.gX0X&X:X0.q.T P P X.&.,.;.:..X<.>.>..X|.X |.@X@XaXaXaX8XoX|.|. X-.3.<.1.<.#.;.~   P } 7.;X1XrXkXBX{.{.{.{.{.{.{.{.{.{.{.{.{.{.",
"{.{.{.{.{.{.{.{.{.{.kX9X1X#X8.E H . @ T 2..X;.;.1.1..X<.<.+.+ % $ $ $ $ X X }.X X |. X-. X1..X<.<.;.,.;.#.O . P P E XX1XeXlXBX{.{.{.{.{.{.{.{.{.{.{.{.",
"{.{.{.{.{.{.{.{.{.rX&X0.5.H . @ $ . *.OX<.*.1.<.1.1.2.;.;.%.1.1.<.<.<.<.*.*.*.*.X.+.*.=.;.;.<.1.;.:.:.:.2.-.R o o T H E 0.1XqXhXDX{.{.{.{.{.{.{.{.{.{.",
"{.{.{.{.{.{.{.kX8X1X8.E P o @ *.$ .X.X-.;.:.=.<.2.<.>.;.$.$.:.1.=.=.<.;.1.;.;.;.=.%.:.:.1.1.<.<.1.1.:.=.;.>.>.#.+ o R o T 5.XX2XkXSX{.{.{.{.{.{.{.{.{.",
"{.{.{.{.{.{.{.6X1X8.T o O #.2.*.=..X3.=.:.:.1.3.;.1.;.&.&.$.;.;.1.;.;.<.<.<.<.1.1.1.:.;.;.;.<.2.2.2.<.;.$.;.&.;.#.+ o @ T E 4.XX6XlXMX{.{.{.{.{.{.{.{.",
"{.{.{.{.{.{.=X1Xo.T . +.3.;.@.% .X<.;.:.;.:.1.:.;.;.;.$.>.-.;.<.1.;.<.;.;.<.;.;.;.;.;.;.;.;.>.-.-.-.>.>.;.$.$.;.-.-.o @ T o E o.XX=XlX{.{.{.{.{.{.{.{.",
"{.{.{.{.{.6X1X5.R o @.1.;.:.+.=.<..X;.-.,.>.;.;.1.:.:.%.:.$.;.;.;.:.:.;.;.1.;.1.:.:.:.:.,.;.;.;.-.>.:.,.:.:.:.;.;.;.;.o @ T T o.4.XX0XmXDX{.{.{.{.{.{.",
"{.{.{.{.eX1X5.E o +.:.@.3.;.+.<.;.<.;.;.>.>.;.:.;.:.%.:.:.:.<.;.;.:.;.:.,.:.1.;.:.:.:.:.:.:.;.;.&.>.%.1.1.1.1.;.1.;.;.! + o T T 4.o.XXgXBX{.{.{.{.{.{.",
"{.{.{.{.6X8.5.o + % :.1.:.;.*.;.;.;.;.,.>.-.%.:.:.:.:.%.:.:.1.1.:.;.:.;.$.;.$.$.=.%.;.;.$.$.$.>.$.;.1.1.1.1.=.=.:.:.,.%.O o @ T o.5.4.*XlX{.{.{.{.{.{.",
"{.{.{.gX&X5.U   O # @.:.%.;.2.;.1.,.:.;.:.1.:.1.:.%.:.:.:.:.1.=.:.%.;.$.;.$.:.:.:.:.:.:.,.$.>.$.;.;.:.:.1.1.1.1.:.%.:.%.O o P o U _ ` G.gX{.{.{.{.{.{.",
"{.{.{.eX2X/.w.` R R ~ ! :.,.%.1.,.:.:.1.=.@.:.%.%.:.;.;.3.=.1.:.;.:.&.%.&.:.:.:.:.=.=.1.:.%.,.>.:.1.:.@.,.:.,.1.:.:.@.Q !     0 } | { ] 6X{.{.{.{.{.{.",
"{.{.{.sXrX3XL.H.(.} I Q R ! &.&.%.@.@.%.@.% % ! %.$.&.,.@.1.=.1.:.$.@.%.%.%.%.%.:.=.1.%.:.%.&.,.%.@.@.! ! ! $.@.@.#.~ ~ Q 0 W U...[ [ ] rX{.{.{.{.{.{.",
"{.{.{.lXqXtX).T.| U.q.P R ~ R ^ ~ Q ! ! % ! ! # ~ Q ^ $.,.@.,.:.@.%.@.! ! ! +.% @.@.%.%.%.%.@.! ! # # # ! ! Q I W R W I U } `...Z C Z A.lX{.{.{.{.{.{.",
"{.{.{.{.0XtX4XT.R.[ U.(.>X>X(.(.q.I I ~ ! # Q Q ^ ^ ^ R R ~ ~ ! ~ R O ~ I O # Q ~ ! ! #.~ ~ ^ ^ Y ^ 0 Q Q O I q.e.(.(.U.I.h.h.V.n Z t.,XMX{.{.{.{.{.{.",
"{.{.{.{.kX6XtX].P.W. ./.<X/.L.w._.(.w.P 5.e.e.U.U.U.(.e.Y P I I E q.e.(.(.e.q.^ U P W P q.(.(.(.P.U.e.Y 0 w.>X(.J.h.x.| [ [ b.c.D t.A.iX{.{.{.{.{.{.{.",
"{.{.{.{.{.kX0X5X_.Y.H.].5X].T.~.j.r._.].(.w.Y.J.J.l.w.e.(.Y } `.[.(.Y.J.l.J.!.[.`.} U <X(.k.k.l.l.h.[ R.!.e. .b.E.B.b.a.y i.M.M.t.' 3XMX{.{.{.{.{.{.{.",
"{.{.{.{.{.JXeXuX5X)._.J.5X4XL.T.B.~.J.] <X4XK.R.E.n.E.I. .`.!. . .b.b.I.I.n.x. . .U.[.| b.R.B.B.v.V.c.j j x.n.E.n.M.v.[ h g.d.t.' ,XMX{.{.{.{.{.{.{.{.",
"{.{.{.{.{.{.DX7XqX5X,XS.4X4XT.B.R.b.B.T.4X[.R.B.B.B.n.I.x.{ | E.E.V.m.m.m.B.M.V.e.[ j n.V.B.m.m.v.v.i.[ k v.V.v.M.v.i.h C M.t.( -XzX{.{.{.{.{.{.{.{.{.",
"{.{.{.{.{.{.{.{.eX6XiX$X).5X].T.~.m.B.r.5X4XT.B.m.V.I.I.v.( M.m.V.M.m.f.m.m.v.v.M.[ j v.v.n.B.n.c.M.D C t.m.B.v.g.M.l u i.y.] 2X{.{.{.{.{.{.{.{.{.{.{.",
"{.{.{.{.{.{.{.{.{.eX6XtX:X,X5X].z.~.B.j.5X5XT.B.B.n.n.n.n.[ m.m.n.v.M.f.M.B.B.n.M.D e s.n.n.M.v.M.M.Z j Z a.M.M.g.D u j j.] 3XzX{.{.{.{.{.{.{.{.{.{.{.",
"{.{.{.{.{.{.{.{.{.{.kX0X=X*XtX5XQ.K.B.z.L.5XT.~.n.B.n.n.B.y V.m.I.V.m.f.m.B.n.V.v.F e s.M.n.M.m.v.v.D u g.M.s.p.D j r ] -XhX{.{.{.{.{.{.{.{.{.{.{.{.{.",
"{.{.{.{.{.{.{.{.{.{.{.BXkX7X&XtX4X~.T.~.L.4X4XK.n.b.v.V.M.y V.b.I.I.v.B.B.v.M.v.g.u.e s.M.b.v.M.M.i.p p g.M.s.t.Z ' ,XtXzX{.{.{.{.{.{.{.{.{.{.{.{.{.{.",
"{.{.{.{.{.{.{.{.{.{.{.{.DXDXkX8X3X5X).).K.).4X_.B.M.v.v.v.j n.I.I.n.I.n.I.v.c.M.s.D e f.N.f.m.M.d.p u V F D [ ] %XhX{.{.{.{.{.{.{.{.{.{.{.{.{.{.{.{.{.",
"{.{.{.{.{.{.{.{.{.{.{.{.{.{.{.BXrX2X2X5X).A.3X].~.m.m.M.M.[ x.E.n.V.V.I.V.M.M.g.f.A u d.g.g.M.c.t.Z e D u.{ w.2XzX{.{.{.{.{.{.{.{.{.{.{.{.{.{.{.{.{.{.",
"{.{.{.{.{.{.{.{.{.{.{.{.{.{.{.{.DXkXeX6X*XF.F.-XK.B.N.f.f.t.h.E.B.B.B.B.n.M.M.g.G u u G G s.i.c.( ) ( r.0.2XkXBX{.{.{.{.{.{.{.{.{.{.{.{.{.{.{.{.{.{.{.",
"{.{.{.{.{.{.{.{.{.{.{.{.{.{.{.{.{.{.{.{.iXuXgXyXF.L.K.R.P.l.| R.B.m.M.B.v.n.m.m.a.y y t.y.| | ` 5XtXiXtXlXBX{.{.{.{.{.{.{.{.{.{.{.{.{.{.{.{.{.{.{.{.{.",
"{.{.{.{.{.{.{.{.{.{.{.{.{.{.{.{.{.{.{.{.{.{.{.{.{.0X$X$X#X;X-XS.R.n.V.n.v.v.b.K.] S.A.D.7.G.2XhX{.{.{.{.{.{.{.{.{.{.{.{.{.{.{.{.{.{.{.{.{.{.{.{.{.{.{.",
"{.{.{.{.{.{.{.{.{.{.{.{.{.{.{.{.{.{.{.{.{.{.{.{.{.{.{.{.{.{.{.{.7.l.n.n.v.b.w.6.2X{.{.{.{.{.{.{.{.{.{.{.{.{.{.{.{.{.{.{.{.{.{.{.{.{.{.{.{.{.{.{.{.{.{.",
"{.{.{.{.{.{.{.{.{.{.{.{.{.{.{.{.{.{.{.{.{.{.{.{.{.{.{.{.{.{.{.{.{.4X7.r r  .3X{.{.{.{.{.{.{.{.{.{.{.{.{.{.{.{.{.{.{.{.{.{.{.{.{.{.{.{.{.{.{.{.{.{.{.{."
};
