/* XPM */
static char *_4e3b866bab1494adfe080f935e9a1e46EbkVxOKrVmX2W3h[] = {
/* columns rows colors chars-per-pixel */
"75 75 230 2 ",
"   c #1C1A1A",
".  c #1A1716",
"X  c #11100E",
"o  c #211D1B",
"O  c #241A15",
"+  c #25211E",
"@  c #2B231D",
"#  c #332A1D",
"$  c #1C2125",
"%  c #1F2834",
"&  c #252322",
"*  c #2A2623",
"=  c #2C2925",
"-  c #2C2C2C",
";  c #272629",
":  c #332B24",
">  c #322D2A",
",  c #362C23",
"<  c #35312C",
"1  c #3B332C",
"2  c #3A352A",
"3  c #2C2C32",
"4  c #242C37",
"5  c #2D3238",
"6  c #343333",
"7  c #3B3633",
"8  c #3D3A35",
"9  c #34353B",
"0  c #3C3B3C",
"q  c #363937",
"w  c #312F34",
"e  c #161A23",
"r  c #443628",
"t  c #433C34",
"y  c #423E3B",
"u  c #493F35",
"i  c #4B381F",
"p  c #3F403E",
"a  c #4B4235",
"s  c #44423D",
"d  c #4B453C",
"f  c #4C493E",
"g  c #444136",
"h  c #51473C",
"j  c #534C3D",
"k  c #534736",
"l  c #5E543D",
"z  c #544024",
"x  c #675634",
"c  c #3B3D42",
"v  c #363B45",
"b  c #403F45",
"n  c #3D4144",
"m  c #3D444A",
"M  c #36414C",
"N  c #3D4851",
"B  c #444343",
"V  c #4A4642",
"C  c #4C4A44",
"Z  c #43454B",
"A  c #46494C",
"S  c #4C4C4B",
"D  c #484849",
"F  c #524C44",
"G  c #524E4C",
"H  c #594F46",
"J  c #4F504D",
"K  c #565145",
"L  c #5B5345",
"P  c #54524C",
"I  c #5A554C",
"U  c #5D594D",
"Y  c #5E5A45",
"T  c #444A52",
"R  c #4B4D53",
"E  c #484D59",
"W  c #514E52",
"Q  c #4D5154",
"!  c #4D535A",
"~  c #465157",
"^  c #545453",
"/  c #595653",
"(  c #5C5A54",
")  c #53565B",
"_  c #55595C",
"`  c #5B5C5C",
"'  c #575856",
"]  c #635B4C",
"[  c #665A48",
"{  c #635D54",
"}  c #625E5A",
"|  c #685F55",
" . c #604F41",
".. c #5E605C",
"X. c #68614E",
"o. c #656154",
"O. c #6A6354",
"+. c #64625C",
"@. c #6A655C",
"#. c #6D6A5E",
"$. c #736A5D",
"%. c #756A58",
"&. c #746D54",
"*. c #4E5762",
"=. c #535B63",
"-. c #5B5E63",
";. c #545D6A",
":. c #555A67",
">. c #605D61",
",. c #5E6164",
"<. c #5C636B",
"1. c #59636C",
"2. c #5D6572",
"3. c #5E6975",
"4. c #636464",
"5. c #696662",
"6. c #666964",
"7. c #6C6A64",
"8. c #63666A",
"9. c #65696C",
"0. c #6C6C6B",
"q. c #68676A",
"w. c #726D64",
"e. c #726D6B",
"r. c #796D64",
"t. c #6E706E",
"y. c #767166",
"u. c #7A7265",
"i. c #74726C",
"p. c #7A756C",
"a. c #7D796E",
"s. c #75786F",
"d. c #646B73",
"f. c #6A6E73",
"g. c #656E7A",
"h. c #696F7B",
"j. c #636773",
"k. c #726E71",
"l. c #6D7274",
"z. c #66717C",
"x. c #6C737B",
"c. c #6C757A",
"v. c #747473",
"b. c #797673",
"n. c #767875",
"m. c #7C7A74",
"M. c #73767B",
"N. c #75797C",
"B. c #7B7C7B",
"V. c #78777A",
"C. c #857965",
"Z. c #837B6D",
"A. c #867B6A",
"S. c #827D74",
"D. c #827E7A",
"F. c #897F7A",
"G. c #7E807E",
"H. c #848176",
"J. c #8B8374",
"K. c #84827C",
"L. c #8A847B",
"P. c #8D8A7E",
"I. c #85887E",
"U. c #928A7B",
"Y. c #94856C",
"T. c #A08A70",
"R. c #5F7081",
"E. c #6C7683",
"W. c #6E7A83",
"Q. c #6D7D8A",
"!. c #657584",
"~. c #747C83",
"^. c #7A7E83",
"/. c #747E89",
"(. c #757A84",
"). c #827E81",
"_. c #7C8284",
"`. c #75818B",
"'. c #7C848B",
"]. c #7E888D",
"[. c #778185",
"{. c #7C8591",
"}. c #7C8993",
"|. c #798895",
" X c #6F818D",
".X c #838483",
"XX c #8A8682",
"oX c #868984",
"OX c #8B8A84",
"+X c #82868B",
"@X c #858A8C",
"#X c #8B8D8B",
"$X c #928D84",
"%X c #928E8B",
"&X c #8E918D",
"*X c #8F9087",
"=X c #949185",
"-X c #999486",
";X c #93938C",
":X c #99968C",
">X c #9B988C",
",X c #838C93",
"<X c #8A8E91",
"1X c #838E98",
"2X c #869196",
"3X c #8D9294",
"4X c #84919C",
"5X c #8B949B",
"6X c #8E9A9D",
"7X c #929592",
"8X c #9A9A94",
"9X c #92969C",
"0X c #94999B",
"qX c #9B9D9C",
"wX c #979994",
"eX c #908F92",
"rX c #A29B88",
"tX c #A19D94",
"yX c #9DA09E",
"uX c #A7A69D",
"iX c #8E9AA3",
"pX c #8B96A1",
"aX c #969DA2",
"sX c #979EA5",
"dX c #9AA2A6",
"fX c #9CA7B1",
"gX c #ABADA2",
"hX c #B0B1A5",
"jX c #C3BEAE",
"kX c #C4C0AF",
/* pixels */
"d K @.S.u.$.i.+.} { OXu.x a } @.G V t , : O O @ : t F @./ d * * 6 w.@.@ = 8 K @.S.u.#.i.+.{ V /.aX5X+Xk.O   = w 6 D +.o.V t u C @./ V : = 6 5.$.& = - ",
"& t y y h d a 7 V W b.=X .) #XOX<X<X$XI R .XK.b.n.Z.OXP.@X@XN.z.f.M.G._.0.> 7 8 g C a h 7 0 3 0 8.t.k.0.S 8.+XN.2.,X3XB.n.B.Z.P.P.oX@XN.z.f.N.G.K.i.1 ",
"c i.i.f.:XH.d ' N.9X-XOX@.) b.m.XXoX-Xe.j._.*XoXoXK.=X*X&XdX6X5X7XyX,XoX$X` w.p.f.-XJ.d R c..X,.V 7 > _ [.,X'.,Xh.N.5X[.s.H.oX$X=X&XaXaX5X7XqX<X.XP.v.",
".Xw.S [.uXjX0._ B.B.$XP.I R b.S.v.y.$Xw.R N.M.N.H.I.oXoXK..X_._..X#X@XN.N.OXe.S /.uXkXt.R .XK.I.J.7.m j.h.OX+X[././.~.l.f.n.G.oXG._..X_.[.].#X@XN.M..X",
"B.I.Q j.oXgXl.q S V I @.K 0 S 7.5.@.Z.( 9 v.N.B.4.6.B..X.XG.B.].).<X@X^.v.n.oX) 3.I.uXB.0 e.0.w.w.u.=.9.-.N.oXf.f.N.4.7.l.l.N.i.n._.m.B.+X.X#X@X^.M.v.",
"0.7.7 R l.;X0.! ].+X_.,XL.H.n.` d F F r . R 0.@.$.` 4.v.G.B._._._.+X@X.X.Xl.0.7 A 8.m...< +.@.I { / <.l.g.M.M.^.c.0..._ ,...w.6.s.n.n.^.^._.+X@X.XK.v.",
"w.d , 1 V I B <.+X#X^.`.].:X7XP.h / a 7 A 9 0 d { 7.+.P S Q 9.,.f.e.0.p.7.q.h 1 @ 6 q.y & G ( { } Z D _ 8.-.-.0.M.7.6.+./ C 8 s F B ' 8.4.0.0.0.p.7.0.",
"O./ e.{ S =.z.N.7.5.4.=.4.7.i.l R <XS.;.Q.'.'.b.7.y.$.O.- <.m.@.< ^ { k F [ I 7.P ( u.S 7.S.m.I t r : A _ 8.q.' q.@.K f p f ` ^ =.1.x.N.5.< P { h F  .",
"s.0.].9X*.Q.].m.+.l : 0 8.n.a.( f.H.4.z.W.`.@X.XOXJ.y.o.D W R B.B._.7.b.&X.X6.` C V t g u.H.OX*X..N.E c.]._.9X].3XOX( ^ ;.Q.|.}.`.W.[.,.B.B.[.7.b.3X9X",
"w.D 8.0.*.}.[.,X5X:X[ ;.`.#X*XOXs.#.0.c.<.4.+.o.X.U m.{ / x.;.^.@X7X' _ q.b.0 A 0.B.` 6 ` D.I.H...4.d.e.5._ B.}.@X8X9Xx.R.!.,.6.g.<.8.1./.@XwX,.1.^._.",
"s.f.v.1.1.[.l.c.l.L p E.x.7.5.y.j # p ,.) A B +   Q m.p.v.9.c R W G A _ ` q.d.v.0.=XU.q.S 7 1 B S ) l.B.oXN.N._.S.C..X^.x.g.x.d.d.~.W.T ,.t.n.G.0.0._.",
"6 l._.`.[.7.o./ X.# 4 N.0.) ` @.` s Z ].5X0Xe.@ T l.0.i.S.H.{ D y b g..Xb.6 0.f.=.A.A.` @.* Q E._.N.M.#X+Xb.c.6.| [ 0.-.z.Q.].[.g.~.l.0 *.~.'.5X4X1X~.",
"  +..X~.#X#XB.#.o.^ n p ' <.B..X&X0XN.1.f.*Xo.3 -.4.` { H | | ] Z 2.g.e.a.0 / D.q.O.r.o.u O ^ 8...` ` 9.n.B.c.G.J A 6.6 _ g.N._.t.6.0.B 2.x.M././.^.q.",
".   @.m.w.i.b.n.G.t.#.K u V ^ t.t.G.p.p J ( t 3 ` 8.e.w.r.A.[ * ;./.v.v.C.1 . } a.[ H k # o w ) ` d.,.) 6.i.t.n.D Q t.= s R ^ P P P ^ K ! j.f.M.M.H.U ",
"` <.w.C.L.p.6.,...J U J P f f p m C x : m ^.i.> _ o.@.0.| r.| 3 D C V 0 p.+.-.e.C.$X=XD.b.k._ D Q ` -.^ ( ^ J #.7...+.C J ,.` 9.l.t.s.s.,.J C C s e.w.",
"0X+X%XoXK.oXI.I.U M ~ N N n 5 4 4 4 K l _ u.[ & g f P / $. .u o X . 5 2..X3X@X<X$XK.qX9XwX>XuXb.> * * 0 p + : p ..N.}.n.<._.W.c.c.l.0.` ! _ 7 ; ;..X#X",
"B.B.5.p.M.m.a.#.8 4 A 5 % n 9 $ e 4 m X.2 1 { ` 7 3 j.F.$X$.t o v z.|.c.B.m.m.q.p.N.G.I.s.L.=XrXm.D - +.i.u = - _ N.+X#X4.9.f.f.[.N.[.].@X2X[.].W.B.s.",
"V { i.s.7.+.s.n.0.` 7 . N N.N._ 6 & t &.a =.sXoX_ v N.K.=XrXL =.,Xv.y.0...C { p.i.7.o.@.f a k h o.+.T 6 +.{ 9 Q 6.B.M.B.a.4.1.d.N.[.n.#.s.oXn.i.7.4.C ",
"` _ ` 7.X.o.u.H.9XwXY 9 z._.3X0X0X).e.p.S f.$Xb.A 5 T ` @.] b ` ` / 8 s / ..) _ y.X.] ] ] | { D.v.V.` n / / Z =.,.w.} { ..J _ <.9.I.s.( ..t.7.p p P +.",
"V P P l j d U s.7.O.y g.G.N._.].<X<X<X<XS.= B ` N._.B.b.Z.Z.} P ` 8.b.p.B g P ^ l h a f F { k.XXG..XV.6 s _ S ! B O.e.4.s - s ( C ( 7.+.C ` 7.s.p.V 8 ",
">.G F a * @ t # 7 q.E./.+X<X^.~..XB.m.L.J.P 3.`.OXI.B.M.K.tXK.D - Q H.A.a.4.S F s : @ : > W 5.M.x..XeX} -.8.B ` / 7.G.U < n p a f C ^ i.P - A S.A.a.4.",
"D.K.J.C.[ U.7.4.9.^./.B.D..XN.i.i.G.G.L.@._ N.l.D.m.^.V.M.n.OXK.Q q.L.J.H.H.H.J.C.] J.I ) (.^./.B.D.oX_.oX<X<Xv.4.s.k p f.G.@.< < 0 p #.n.Q q.H.J.H.OX",
"D.v.U.O./ P.B.D.k.M.^.v.l.M.m.e.4.+.+.y.o.n f.M.m.b.v.b.e.7.m.#.^ m.y.n.b.m.b.J.@./ P.B.B.v.N.^.v.k.N.B.V.V.XXB.B.m...^ i.y.H.^ ` 0.l.H.y.Q m.i.m.i.p.",
"5.5.A.+.! _.OXL.+X).K.N.[.v.M.0.( K L k t ; S 7.m.m.0.} } i.u.t p a.s.i.b.7.7.A.#.! B.#XXX+X.XL.N.^.M.b.).k.0.p.m.H.J + 2 < F 0.6.l.v.G.f 0 p.a.i.n.0.",
"g s 9.^.,.V a a ^ 5.b.f.S.( G / } XXL.T.U.C.u w t F I / / | [ @ = +.r.w.I V y q.^.8.B d a / q.m.0.m.( B +.+.S 4.@.@.q ) q.9 8 6.9.8._ +.g * } p.w./ I ",
") q.K.e.p.| 7 E 2.>./ } $.{ ( 0 ^.<X7XgXtX8XD.y.> b >.v.k.w.u.[ Y A -.b.).,.4..Xe.y.| 1 R ;.-./ ( $.H V C K D P F 1 m 1.v..X0 p 6.,._ i.$.I D -.k.D.B.",
"OX= V F , G '.{.^.OX0.5.o.d = 3 _.H.b.B.;X@XOX=X5.j.+X#XqX%X%XJ.XX@XeX7X%X%Xw s H , G ^.,X(.%XV.D.H.7.G 0 V 8 0 ` l.*.Z / U V   C .._ 0.J.P.@XeXwX%XeX",
"J.Z ~.@.Z h.^.v.9.p.b.q.b.@.& v G.-XXXb.i.+X#XL.b :.E.h.V.).XX+X.X^.k.b.%XL.B (.5.Z h.+XM.8.OX%X0.G.0XJ.e.G ,./.|.}.<X@XS 2 g - p Z Z 7.i.B.^.e.i.XX$X",
"$Xf.p.` W.(.e.4.d.N.S.L.I.S.< ! f.D.:XXX@X^.;Xu.> ;.x.M.V.).@Xb.XXD.k.e.F.$Xf.v.` (.^.B.^.f.N.K.%Xe.OXJ.U.3 1._.^.W.B.%X4.w G.].4X}.|.+XB.).V.k.e.D.%X",
"J.-.>.=.^.%X7X0.q B G K O.l . 9 f.M.0.m..X~.J.] ; :.h.h.e.f.V.V.#X).p.k.D.F.` 4.=.N.@X#X@XE.0.0.S.D.p.S.D.R 3.v.5...` i.e.n g.!.`.@X].N.b.#X).Z.k.S.XX",
"y h.#XS f.OX;XOXV S +.r.J.&.y Z F f P V h F ] +.G c ) 8.k.k.k.h.M.D.b.b.F.( j.#XR d.XX,X+XOXk.>.w.5.( @.+.6 V C s Q ` 0.P m <.9.,.0.M.V.f.V.D.V.b.F.w.",
"& S 5.b ^ D.b.D.( s y V ] o.p.L.H.p.@.@.@.j H { @.V b S / q.V.b.f.b.k.5.| > A @.b S p.b.S.b.q.I | { / L 2 = + 3 Z ,.q.Y * p 9.c.d.l.B.b.f.0.k.b.q.O.1 ",
"M.j.l.h.,.q.e.| u t / K * =.L.y.7.B.OXP.I.H.$XP.$X%XOXk.F - 1 d u 7 / M.M.M.h.f.N.d.q.q.@.u , b a.] C >.x./.].^.d.` ] r O o ) h.9.6.+.P / C 1 ^ M.V.N.",
"9XaX5X@X.Xb.OXyXB.7.B.m.R t.m..X.XB.t.m.0.v.K.L.L.K.B..XwXH.8 0 F Z 2.,X4XaX9X9X,X9XOXwXtXB.5.8.4.b.|.1X,X&X6XdXfXsX;Xp.7 w Q ) Q _ 0.B u C Z <.{.1X0X",
"<X+X^..X.Xm.p.B.H.OX} b.} q.M.B.oXa.w.9.n.B.#XrXoXOXi.0.OXrXOXf D T 2.(.+X#X+X^.).B.S.b.B.K.$X] B ~.M.d.h.0.0._.OX.X#X7Xf.`.,X[.W./.#XqXi.R T ;.(.+X#X",
"S.J.J.v.@.i.p.r.m.D.g t.i.q 8.D.U.Z.7.P q.s.D.U.:XOXk.4.0.D.:X.Xh.q.*.h.b.S.D.F.p.q.e.a.r.D.D.7 y ^./.(.N.N.i.q.i.b.oX#XN./.[.'.E.W.oX;X#XN.f.=.f.b.a.",
"e.S.a.y.r.m.p.p.XXr.y P I O   C o.O.L y y G +.p.D.P.XXe.8.e.b.4.8.XX^ V } w.Z.b.p.w.S.p.u.OXa.y 3 D 4.` >.+.i.b.0.q.7.5.) M..XXXv.9.B.G.8.9.oX_ Z } 0.",
"( | w.Z.r.u.e.5.@.} B.$.z r F f g y f , @ - 1 1 d { | 5.( P V > c w.@.& 8 G +.w.a.u.r.i.5.5.I /.,XN.j.` : = q y D / +.U g C { { 7.` P F > 0 5.$.@ 6 s ",
"@ 7 8 y f d d 8 V G n.$X[ ) $X#X#X@XOXI S B.m.i.e.p.L.L.oX_.f.d.9.M.B.B.q.: < t s C d h 1 0 ; c d.M.b.i.D ;.^.l.1.@X3XB.n.M.p.J.L.oX_.c.j.q.b.B.B.0.< ",
"0 e.r.d.=XZ.a Q v.9X:X$X@.) m.n.#X#X=Xr.3._.*XoXoXI.=X;X7XdXiX2X7XqX,XoX$X' 5.p.q.=XA.a A h._.` V 6 < ) /.@X+X].z.N.5X~.s.H.I.=X;X&XdXiX5X7XyX,XoXOXb.",
").7.^ /.gXjX0.` G.G.=XI.U Q b.S.b.i.$Xw.Q N.V.N.H.oXOXoXB..X_.].+X#X@XN.N.XXe.P /.uXkXl.~ .XoXL.S.5.n g.z.#X+X'./.`.^.l.l.n.K..XG.G.oX_._.+X#X<XN.N.OX",
"D.XXQ d.XXgXi.9 J V K #.L q G w.7.@.p.{ 9 M.N.B.5.0.N.+X.XD.B..X.X@X@X^.l.m.oXQ 2.L.hXK.9 7.0.u.$.p.=.q.,.V.+Xf.h.B.4.0.l.v.N.n.B.G.m.B.+X.X#X+X^.v.v.",
"v.e.q ! c.;X0.! '._._.+XJ.m.M.( C F L t . ) e.@.#.' q.N..X_._._._.+X@XXXK.l.i.0 R l.7Xv.6 s.@.K O./ <.f.h.c.M.D.l.0.` _ ,.+.w.6.l.b.B.B._._.+X@XoXD.l.",
"7.d , 1 V I Z ;.{.#X_.'.+X7X7X$Xd I a 1 Z 9 0 y V ^ Q -.' ) 8.4.v.k.v.m.0.0.F , 1 f ( 6 - U Y ..} B R ` 8.,.-.v.M.0.6.+.( C p B K D ' 8.4.l.v.t.m.0.l.",
"Y C 5.I J ) h.N.y.7.6.<.,.y.s.l D ,Xm.;.!./.'.b.4.=.l.@.6 d.B.+.< W U k h I S @.( S _ g.].oXI.K u 2 : Z ) 4.4.) 4.+.P K p f J J _ 1.z.N.@.2 S ] k h L ",
"+X|.5XaX*.Q.}.s...j : 0 <.i.p.B 2.oX5.g.!.+X,XoXwX,X3XoX4.^ S G.b.^.5.b.7X#X'.5XdX) Q.}.I.2XgXyX^ x.~ x.'.].3X'.3XoXU J !  X|.}.`.Q.~.,.G.M._.7.v.<X<X",
"l.d.n.v.*.}.[.2X5X-X[ ;.`.3XqX:X` 5.f.|.Q.{.@X{.].wX;XI.@X/.;.`.3X8X..3.+X(.9.V.v.! |.`.[.G.G.hXN.!.!..Xb.@.+X,X<X8X5Xz.R.W.1.6.g.9.8.1./.3X8X4.2.+X+X",
"@XB.l.,.1.[.c.N.M.] s E.c.n..XqXP.< g.1X/.}.pX<X@X9XqX5X].(.T 9.0.B.N.6.0.].B.v.1.*.`.[.G.G.6.G.#XQ T P r.(.~.].S.C.oX[.c.3.l.f.f./.E.R 8.q.m.N.q.0.^.",
"5XaX9X4X~.7.+.( o.# 4 ~.n.q.v.K.U.G.c.].[. XM.N._.@XaXgX7XN.$ *./.,XiX1X4XsXdXaXpX`.7.F 8 I * ! ,X2X]./.h.8.h.` @.X.t.<.c. X].[.W.[.l.q ! [.,XiX4X4XpX",
"_ B.3X].@XXXi.o.o.J p n 9.4.<.v.H.Y Q d.c.n.0.4.v.E.+XOX3XOX9 z.`.~.,X|.`.+X<XaXiX0X0XB.q ^ A z.@X2X].2X].2X,X_.S D 4.6 _ l.N./.l.6.t.Z 3.`.(.,X`.`.(.",
"& - e.S.#.| +.@.7.t.y.U 7 - V 0 0.#.P A J P V Z =.4.0.0.n.J.C =.E././.{.2X^.~.2X5X.XOX+X^ v ~ x.[.].W.[.`.,X_.m.V Q t.= s Q / / J P Y f =.W./.`.}.5X3X",
"/ -.5.C.J.5.( ( ( ` o.6.U ..i.n f.s.u.8 ~ m.#.- ^ ( +.0.w.S.m.+.^ S ^ W v.0.<XB.7.b.m.D.Z =.V A ,.9.9.z.~.^ g o.#./ ..d C _ ' <.f.0.v.I._.8.Z ) <.f.q.",
"qX+X;XOXXX#XL.L.Y M ~ ! ! ~ _ N N v I l _ Z.[ & s F P ( w.] H 8 o . 3 ) 6.4.6.+.F C _ 0.*.c.i.+.,...G 6 q / B.@X,X2X}.n.9.[.~.~.G.[.].G.7X7X7.j , o + ",
"B.V.5.b.M.H.G.#.7 4 ~ 5 4 M N 4 % 4 m ] 2 2 / ' 1 - 8.D.F.$.t . v j./.E.n.n.v.t.H.4.- <.W.c./.].2X2Xv.- T /.4X2X2X2X4X@X..g.c.d.c.s.n.n.].&X;XU.[ 6 ! ",
"S +.p.i.7.+.p.s.6.! 6   N l.N.^ - o t &.a ) aX@X` v ~.XX-XrXH ) ].N.i.0.4.J +.m.m.G.D ` -.j.8.f.N.n.4.v -.W.q.4.y.G.[.@Xi.<.<.f.c.[.G.G.].&X&X*XN.=.z.",
"( ' ` w.{ O.p.H.3XwXY 9 z.oX&X0X9Xn.0.u.D x.;Xm.A 3 A ..5.X.d ` } / 8 V / ( ^ ' w.O.o.P / -.,.q.+.v.8.Z ,.q.q.( 6.l.t.[.s.8 p ! 1.d.s.].&X&XwX&Xi.0 Q ",
"D / / H F f { b.s.#.y 2.~.N._.+X<X<X<X<Xm.: V _ x.^.M.b.p.u.` ^ -.6.i.w.y B / / K F j d P 9.0.0.0.d.! ! <.d.i.q.t.f.f.l.s.K q m J Z A <.G.I.a.#.o.g q ",
"` V d t # @ 1 , 8 5.x./.@X@X^.^.+XB.B.J.J.S j.[.#XI.B.M.K.tXB.V - Q J.J.p.` V d u # + : = ) q.l.h.M.A =.!.8.q.5.6.N.f.c.c.f.c.[.#Xc.0 !.@X].[.}._.oXc.",
"D.L.J.C.] J.#.} ,.N.`.B.B..XV.v.s.B.D.J.#._ x.l.D.m.^.V.M.m.=XI.R q.P.J.D.oXK.J.A.] A.L ) k.v.<.,.v.4.Q ) -.q.0...9._ Q D A 6.t.N.6X[.W.].|.G.[.G.].3X",
"b.v.J.O.( P.B.D.v.N.^.i.v.M.B.0.+.+.q.p.O.Z l.M.m.b.v.b.i.0.m.6.^ n.w.n.i.v.l.J.r.( OXN.B.k.~.~.0.M.N.+.+.4.i.0.t.7.^ ^ ..K J ..<.oX#.Q 3.9.,.,.7.c.8.",
"g.c.J.6.) ).#XXX).B.K.M./.v.n.v.{ H H k 7 ; G e.m.m.0.+.} e.p.g B a.p.5.l.c.N.H.e.*.^.#XXX+X^.K.V./.M.m.B.v.e.m.m.H.S * g 2 P ..-.c.n.n.G.G.6.d 6 ,.R.",
"8...6._.-.D C C ` e.B.v.m.( G ( } D.D.T.U.r.a w g I ( / / @.O.: < 7.7.q.j.z.f.l.^.8.V F h ( 7.B.f.m.{ B 5.@.R +.5.#.0 Q +.3 p 6.9.x.9.n.G.[.#X( ~ !. X",
"8.l._.i.Z.{ > T :.-./ ( r.{ _ 0 ^.3X7XuXtX>XD.5.* b ` e.k.w.r.] I P -.M.(.x.c._.b.b.| : Z :.` ' ( $.L D D I D / K 1 m 1.n.I.q s 4.4.-.i.s.n.].0.!.W.`.",
").< C F , I ^.{.^.OX0.7.o.d 1 - _.S.m..X:X+XXX=X@.j.+X<XqX;XOXJ.L.+X<X7X.XB.V J H , G (.,X^.%XV.K.S.@.V 8 V 7 8 _ q.! m ....C   J ,._ t.S.S..XN.].[.N.",
"J.c N.@.n g..XM.8.b.p.4.i.+.* 5 _.-XL.b.i.OX@XU.s <.h.M.V.).).@X+X^.b.b.XXF.B N.5.b g.+XV.8.XX%X9.K.wXJ.5.P -./.`.1X,X.XV 2 8 ; p p m 4.i.B.N.0.e.XX.X",
"$Xf.b.` E.(.0.4.f.N.K.L.P.S.6 R f.K.7XoX+X_.7Xu.3 ;.E.l.V.).#XV.OXV.e.q.XX$Xd.b.} E.^.N.^.f.B.K.$Xe.XXJ.P.w 1./._.~._.;X5.3 G.[.}.}.`.].B.L.N.e.e.D.%X",
"L.` } =.^.#X;Xq.0 D K F O.l . c l.n.y.B.oX~.L.[ ; :.h.x.e.k.D.V.OX).p.k.D.F.` 4.=.^.#X<X,XE.q.0.D.D.p.F.H.R 2.M.0.,.` i.e.c g.W.].,X].B.v.#X).b.k.S.L.",
"V x.@XR v.OX7X.Xs D 4.r.J.&.7 0 F f P C F K O.+.V b ) 9.k.k.k.h.V.).V.b.F.{ j.#XR f.XX<X+XOXf.} w.w.( 5.+.9 V F B W ` 0./ Z <.9.<.l.n.v.M.V.).b.b.D.r.",
"+ R @.b ' D.D.H.( s s C o.#.v.L.D.r.O.o.{ d K ( } V Z D ` e.V.k.f.b.v.0.| > S 5.y R b.m.D.m.e.( { ( / U 7 @ + - Z -.q.L = c j.l.d.f.B.M.0.0.b.v.q.@.1 ",
"h.9.k.d.=.5.0.| u t / F * _ H.r.0.B.OX*XP.H.U.P.$XOXI.e.V : t V V t / v.v.f.9.f.x.8.4.5.} a , y b.] d ` l.N.`.N.j./ ] r O & _ x.d.7.+.I ( C 7 / M.k.v.",
"5X9X5X,XoXb.%XqXv.5.B.m.R t.S.XXK.B.t.m.y.t.I.L.L.oXB.@X:XS.w y C b j.,X4XaXaXpX,X0X#X>XqXb.} 8.7.b.'.4X2X&X6XdXfXdX;Xe.1 - ! Q ^ _ q.y u V b <.}.4XaX",
"3X@X^..X.XB.i.D.L.OX+.v.` 7.M.G.oXa.7.q.v.N.#X>XoXXXi.q.$XrXL.b b T 2./.+X#X+X^.).^.D.m.H.oX%X( B ~.x.g.f.0.l.].#X.X#X7X0./.}.[.z./.,X8X7.S R ;./.+XOX",
"S.D.J.v.q.e.p.r.S.D.V t.i.8 8.B.P.Z.w./ 0.v.S.=X:XXXv.8.0.D.-X.Xk.8.:.f.b.S.D.F.b.5.y.a.r.Z.D.y B ^./.(.~.M.e.7.i.b.XX#XN.`.[._.N.W.oX7X3XN.8.*.x.b.m.",
"w.Z.p.i.r.S.p.r.XXr.0 I [ O o ^ $.@.Y y s I 4.p.H.L.H.0.4.0.m.8.j.XX) D 4.w.Z.Z.i.w.S.p.y.XXp.q - D 8.q.4.4.p.m.l.q.y.w.' N..XK.l.9.B.G.9.9.XX_ D +.e.",
"w.p.p.S.@.y.y.5.w.7.f.Y i r > * @ @ y 1 o > s F } F.S.b.4.4.@.7 D k.#.+ y } b.p.Z.| r.e.q.w.w.@X/.;.A 0 > > 0 8 D / P j 7 ( S.m.n.8.4.w.8 D e.w.& y / "
};
