/* XPM */
static char *bcbb2526a3ad47e9fcbb1172cdb00b73rGzgd6Gre0mgGGs2[] = {
/* columns rows colors chars-per-pixel */
"75 75 217 2 ",
"   c #003F89",
".  c #004386",
"X  c #03468D",
"o  c #00498C",
"O  c #004D92",
"+  c #014F9A",
"@  c #015395",
"#  c #02559A",
"$  c #0A569E",
"%  c #035A9D",
"&  c #0A599D",
"*  c #0A5095",
"=  c #12549C",
"-  c #19589E",
";  c #045DA2",
":  c #0B5DA2",
">  c #0E5BA5",
",  c #135CA3",
"<  c #1C5CA4",
"1  c #135DAA",
"2  c #1957A4",
"3  c #245EA5",
"4  c #215FAA",
"5  c #0661A4",
"6  c #0C63A5",
"7  c #0763A9",
"8  c #0C65AA",
"9  c #0E69AD",
"0  c #1462A6",
"q  c #1A62A7",
"w  c #1465AB",
"e  c #1B64AB",
"r  c #136AAD",
"t  c #1B6AAE",
"y  c #0F6BB1",
"u  c #1D65B1",
"i  c #136DB2",
"p  c #1B6DB3",
"a  c #1E6FB8",
"s  c #1567B1",
"d  c #1571B5",
"f  c #1C72B5",
"g  c #1773B9",
"h  c #1C74BA",
"j  c #1D79BD",
"k  c #2364AC",
"l  c #2B67AE",
"z  c #236AAD",
"x  c #2B69AF",
"c  c #3069AE",
"v  c #236DB3",
"b  c #2B6CB4",
"n  c #246FBA",
"m  c #2D6DB9",
"M  c #2767B1",
"N  c #326EB5",
"B  c #2372B5",
"V  c #2A71B6",
"C  c #2375BB",
"Z  c #2B75BB",
"A  c #237ABD",
"S  c #2B7ABE",
"D  c #3371B6",
"F  c #3A74B7",
"G  c #3474BC",
"H  c #3974BC",
"J  c #337ABE",
"K  c #3A7ABE",
"L  c #1E7AC0",
"P  c #2577C0",
"I  c #2C75C1",
"U  c #247CC2",
"Y  c #2B7CC2",
"T  c #2E7FC8",
"R  c #3676C1",
"E  c #3977C1",
"W  c #337CC3",
"Q  c #3B7CC4",
"!  c #347EC9",
"~  c #3E7FC9",
"^  c #417DC4",
"/  c #427EC8",
"(  c #2681C5",
")  c #2B82C5",
"_  c #2C85CA",
"`  c #2E89CD",
"'  c #2784C9",
"]  c #3382C5",
"[  c #3B82C5",
"{  c #3484CB",
"}  c #3B84CA",
"|  c #3489CD",
" . c #3B8BCE",
".. c #2F8AD0",
"X. c #3686D1",
"o. c #3C87D0",
"O. c #348CD1",
"+. c #3B8DD2",
"@. c #3E8ED9",
"#. c #3591D4",
"$. c #3C92D5",
"%. c #3C95DA",
"&. c #3D99DD",
"*. c #3792D8",
"=. c #4482C6",
"-. c #4484CC",
";. c #4A85CC",
":. c #448BCD",
">. c #4B8ACE",
",. c #4685C7",
"<. c #4C90CE",
"1. c #4490CE",
"2. c #4485D1",
"3. c #4886D2",
"4. c #438CD2",
"5. c #4B8CD3",
"6. c #448EDA",
"7. c #4D8ED9",
"8. c #518DD4",
"9. c #518FDA",
"0. c #4492D5",
"q. c #4B92D6",
"w. c #4C99D7",
"e. c #4495DA",
"r. c #4B94DB",
"t. c #4499DD",
"y. c #4C9ADD",
"u. c #4098D7",
"i. c #5392D6",
"p. c #5A93D7",
"a. c #5394DB",
"s. c #5A95DC",
"d. c #539ADE",
"f. c #5B9ADD",
"g. c #5399D7",
"h. c #619CDE",
"j. c #54A0DF",
"k. c #5BA1DE",
"l. c #4D96E1",
"z. c #449CE1",
"x. c #4B9CE2",
"c. c #4B9FE8",
"v. c #5496E1",
"b. c #5997E2",
"n. c #539DE2",
"m. c #5B9CE3",
"M. c #549DE9",
"N. c #5E9EE9",
"B. c #629DE4",
"V. c #609EE9",
"C. c #45A1E4",
"Z. c #4DA2E5",
"A. c #4CA4E9",
"S. c #4EAAED",
"D. c #47A2E8",
"F. c #54A2E5",
"G. c #5BA2E5",
"H. c #53A4EA",
"J. c #5CA5EA",
"K. c #54AAED",
"L. c #5CA9ED",
"P. c #5CA4F1",
"I. c #55ACF2",
"U. c #5BADF2",
"Y. c #56B2F6",
"T. c #5CB1F5",
"R. c #5EB5FC",
"E. c #5DB9FC",
"W. c #63A2E5",
"Q. c #68A3E7",
"!. c #66A9E6",
"~. c #64A4EB",
"^. c #69A5E9",
"/. c #69A6EE",
"(. c #6AA6EC",
"). c #63AAED",
"_. c #6EA8ED",
"`. c #6AABEE",
"'. c #70ABEF",
"]. c #65B1EF",
"[. c #6DB1EE",
"{. c #64A7F1",
"}. c #68A6F1",
"|. c #64ADF2",
" X c #6BACF3",
".X c #64AEF9",
"XX c #6DADF8",
"oX c #72ACF2",
"OX c #71AEF6",
"+X c #73AEF5",
"@X c #72AFF9",
"#X c #65B1F4",
"$X c #6BB2F5",
"%X c #6FB9F6",
"&X c #64B5FA",
"*X c #6BB4FA",
"=X c #64BAFE",
"-X c #6CBAFD",
";X c #73B3F5",
":X c #73B9F5",
">X c #73B5FB",
",X c #7AB5FB",
"<X c #73BBFE",
"1X c #7EB9FF",
"2X c #7ABCFE",
"3X c #78B1F6",
"4X c #6BC2FF",
"5X c #74C3FF",
"6X c #7BC3FF",
"7X c #76CBFF",
"8X c #7ECAFF",
"9X c #81BEFF",
"0X c #82C4FF",
"qX c #84CBFF",
"wX c #89CCFF",
"eX c #93CFFF",
"rX c #87D3FF",
/* pixels */
"H B.^.oX9X9X9X/ / / F F F 3 ^ / p.8.b.c 4 / R M m / m / ;.b ;.-.;.9.(.Q.(.3X^.^.(.3XoXQ.h.s.oXoXb.}.b.~.@X}.2.V.9.E m R N 4 }.3XoXh.p.p.p.p.F N >.h.p.",
"_.p.B.,.c c = c / 9X9X9X9X9X/ 9XB.B.B.9.V.3./ 9.b./ }.XX/./. X;X1XB.b.i.V.>.K h.8.F b H p.B./ 4 c E ;.M / E M 2 R 7.9.b./ V.9.b.Q.9X,X_._._.B.B.Q.p.p.",
"Q.h.8.^ / / 8.h.9X9X/ / / 9X9X/ ;.;.;.^ 2 m m 2 2 M R m k 2 b G H Q 4 N E s.s.8.b.p.b.m.D E Q -./ b.m./ 3.7.3.2.m 3.b.}.B.3.8.;.;.B.(.9X,X9XeX9X,XB.p.",
"F 8.Q.Q.B.Q.B.h./ / ;.F ^ / / F N ^ H / / G E 3./ R m R ;.5.8.V.}.s.b.B.OX8.5.+Xm.B.@X@Xm.s.,X}.V.N./ }.b.b./ v.V.}.9./ 3.b.s.-.5.V.-.-.9.s.p.oX,X9X_.",
";.F 3 ^ p.p.p.h.9X9X/ Q.9X/ 9X9XV.^.V.V.9.s.}.V.}.XX}.V.B.s./.i.R Q ~ R M k 5.9.J.~.m.7.E 2 M R / 7.s.v.V./ E v.9.V.XXXXa.5.i.s.3.m n = = Q E E K >.=.",
"Q.Q.9X9XQ.Q.^ 8./ / / Q./ 9X9X/ ;.p.s.V.9.8./ E 9./ b.9.9.b.B.m.7.-.3.-.b.XX XXXb.~ Q }.XX>XXX,X1X}.}.>XV.>Xb.3.V.b.2.R V./.XX~.{.{.v.2.v.-.b.s.B.B.+X",
"/ ,.;.h.p./ p./ / / / 9X9X9X/ Q.,X+XoX(.V./ 8.8.b.9.V.s.B.}.m.9.v.v.a.v.G a.9.N.N.1X>XJ.XXN.-.7.3.b.b.9.3.E 3.b.2.-.a.Q -.b.b.;XP.v.XXa.2.3.m.a.8.3.B.",
"^ h.h.^ / / p./ F 9X/ / c F c / s.3.B.B._.9X+X}.XX/ b.V.B.s.8.^ E E N.3.b.}.N.~.s.N.-.~ 7.3.Q m G v.~ 2.4 2 k k M E -.b.a.7.-.Q ~ W R v.b.~ b -.b.s.3.",
"s.8.p.f.9.s.oXW./ / / H ^ / / ^ K N D H a.-.=.`.0X2X/.B. X}.>X X2XOXm.5.N.f.N.5.5.b -.b 2 X < H 9.9.5.2.7.5.a.;.5.5.~. X~.-.E E E -.~.~.XX~.-.7.3.Q -.",
"Q.(.8.,.^ 9.Q.8./ / / / ^ / / / s.m./.~.s.s. Xm.s.m.i.~.-.^ (.;X2XXX,X X`.XXm.~.XX`.N.}.;X2X>X>X/.9.}.;X X X XXX,XV./.>X;X>X>X|.m.;.i.a./.~.7.N.}.}..X",
"N N ;.>.i.8.f.OX9XQ.9X(.V.}.V.b.~.>Xa.B.J.a./.9.-.5.E b Q f.r.-.Q x E q.s.XX~.5.E s.1X0Xm.i.>X;X<X>X1Xn./.;X6X2Xb.~.a.-.5.5.5.}.2X+Xp.W.~.Q.qXQ.~.~.n.",
"B.B.8.;.5./.a.H F H 3 / s.l 8.}.m.5.-.q.5.=.v ^ -.Q 5.s. X~.`.`.a.f.N.9.b b Q N.~.V.5.G Q Q ~.5.5.9.Q =.G v.a.;.N.s.~.5.Q./. Xm.f.m.s.=.H K -.-.Q b < ",
"=.;.m.i.N.W. X Xr.s.s.5.b.9.N N q.m.r.~./.|.$X>X Xm.XXG.f.n./.m.G.W.5. X|.a.r.E q q = -.~.|.d.N.~.m.q.Q K V K [ q.g.m.$Xa.[ z Q -.-.9.9.-.=.f.m. XB.m.",
"Q.m.W.XX/.9.D m.m.XX`.9.9.3.~./.$Xm.5.m.a.q.s.m.a.J.q. X>XG.~.-.:.[ a.G.a.J.<X X;X0X2X$X5.J.d.{. X$X>X0X`. X0X0X2XW.`.W.d.f.2X2X;X<X X5.a.m.m.`. Xf.f.",
"N m.~.5.i.5.5.-.D -.-.-.:.m.3.a.5.3. X`.r.m.n.Q K } q.`.n.E 5.4.~ } G v < e E R 2.2.R e E N.d.a.~.`.[ ~.W.$XW.G.6X;X6X2X XW.$Xb.7.} 7.d.a.[ =.B.(.B.f.",
"(.W.s.,.=.-.^ K N./.-.a.-.K a.3.V Q ~ b V G 5./.J.).~.J v G J.N.N.r.d.).}.r.F.J.J.*X<Xr.G.|.~.d.d.n.~.f.K q.G.;X!.G.:.:.m.G.G.3.}  X|.M.}.;X<XG.`.wXwX",
"p.p.<.h.h.8.f.W.m.:.5.d.`. Xi.i.W.f.^ ,.G 3.5.J / G n -.7.r.5.N.XXN.5.r.r. X{.G.*Xa.5.*X:X`./.>X~.XXm.5. X2X`.,.q.g.q.<.>.5.=.-.! W I m 7.6.N.7.W ~ Z ",
"p.f._.:X,X,X;X5.=.d. X`.f.f.oX:X;X`.2X~.`. X,X*XXXr.r.XX6X}.J.-.J ~ } d.).>XJ.>XG.g.m.G.%X<X2X<XwXwX<XG.|.n.-.$X<X`.$X X X$X$X4.2.} N..X.Xv.P.*X}.r.N.",
"f.h.h.,.k b k < V K >.).W.2X[.:X0XB.;X2XqXm.qXXXd.G.5.n.V V } n.J.q.r.b } J e R V ~ 5.E q , b k R >   V 4.} r.J.).5X).J.7.Z 7.r.4.r.:.7.E 7.q.3.-.~ 6.",
"h.W.[.!.B.`.s.N.~.;Xf.f.W.=.K f.!.f.f.V = z G -.q.3.V } n.~.-.q.d.N.M.$X$X3.J.s.r.} n e 2 e m ! ! o.4.l.} Z  .M.F.Z { 7.I l.2.r.d.4.W Z ~ [ [ 7.G.G.5.",
",X[.h.i.i.f.W.i.~.f.a.W.<.<.h.!.<.F k.k.!.%X~.).:X`.8X$Xq.r.<X#X|.:X8X|.J.#X.Xd.4.l.} v I I ! l.n.s.} n.d.5.[ 1.G.>X~.<X$X2X XG.a.|.J.|.|.J.J.~.J.N.d.",
"i.;Xf.2X$X`.`.f.g.;.G.W.9X0X:X0Xg.<.0X5Xa.K f.g.w.q.v b } 4.r.G.r.B J W 0.Q n } r.o.l..XP.6.>XP.q.7.G./.~.$X Xy.:X:.:.|.N.~.0X<X<X|.J.r.a.3.J.M.G.a.N.",
"i.m.D :.=.:.a.W.`.;X3X:Xh.p.f.!.k.k.5X[.!.].g.`.[.%XL.`.).$X$X5.Z z z J 4.L.J.{.P..X.X.X6.1 @.@.T 2.6.6.{ e Z e w n } } } V n v 1 e ! I R o.W R 2.v.P.",
"q.=.i.q.f.>.a.5.p.g.f.f.f.[.W.!.[.[.<.J ,.K w.q.K z v G.[.).F. X6Xr.$X X*X$Xl.v I 2.+.! @.l.6.} ! C X.I e $ 1 B n Z P } } C 1 < u W W } 7.6.{.M.P.M.2.",
"i.>.[ k G Z G [ s.a.f.i.,.f.W.!.g.k.!.<.<.g.!.<.f.G.).q.:.a.q.0.b k 3.n.:.V J n.$Xr.W } { ! W } ! X.X.A e.6.l.6.x.e.o.P ! +.n.6.6.n W ! ! W I R I I W ",
"K [ x K [ 5.q.i.>.g.W.[.k.>.W.6XrX6XwXwX2X6Xg.`.).G.f.<.[ [ -.K a.<X4.V 7.n.<X Xr.q.J.G.).4.F.|..X<XJ.F.M.c.P.&XU.M.e.-X<X-XM.M.r.+.6.6.l.M.v.P.7.2.6.",
"r.;.g.q.5.).5.m.i.i.:. Xf.).`.K K ,.g.k.).G.$X$X).5.r.q.~.N.|.q.-.{.*X*X*XJ.4.J.d.y.d.).F.G.F.#X{.).~.J.q.H.P.-XJ.J.|.<X5Xq.G.G.).).-X$XN.*X$X#X*X<Xq.",
"~.n.6X<X$XQ J Q :.[ q.q.q.z & V [ V [ =.).`.i.:.g.$X>X<X<XL.s.#XP.J.J.{.).G Z [ ] } G.0.K G.L.q.} B ] e , 0 k e I :.B q v J e 4.|.L.L.y.n.).d.} } b.4.",
"[ [ r.<Xm.q.G.|.f.d.s.:.J W 4.r.j.0.-.r.n.L.$Xy.`.0.F.n.r.3.R R :.0.[ S [ L.{.#X|.*X*Xq.} } F.r.+.@.P T h C u P P P ! A +.J.T.&XJ.0.Z :.F.<X{.*X5XM.).",
", < q * - z k Q 5.[ d.J.r.y.r.r. .V { W v q = 0 r.-X4.4.] y.P.y.S e ] $.4. .4.y.n.F.*XL.d.U.r.M.P.n.x.e.x.X.X.X.X.x.H.&X|.e.6.6.r.J.#Xy.H.4.:.-.r.} n.",
"J.d.m.n.} K J } J n.G.|.} r.q.T I a v > } +.Z Z = B 0.q.} { } r.F.y.F.F.w.L.F.F.0.] W 4.} +.U.x.x.x..XL.6.o.l..X*XP.y.n.G.y.} 0.x.{ J.n.V u 6.o.! 2.6.",
"} } V -.J.r.n.J.J.} [ B n W x.J.F.q.q.q.} 4.n.L.L.<X5X<X#Xn.q.0.0.J.w.0.w.] B J y. .I n +.U.n.} r.n.{ 4.} 4.{ A v e C [ r.L.*X*X{.&Xe.o.} x.n 1 u u 1 ",
"q.:.} W 6.q.J.r.Z V r.y.J.L.y.] [ ,.!.).$X5X:X$Xj.).].$X8X<X%X%X[.].y.:.[ j.j.5X-X].5XF.0.} 0..XL.O.J.F.#XG.J.y.F. .0.y.F.} y.c.L.&X*XF.J.F.d.} } X.! ",
"} r.} [ } q.C v } 0.} 0.} S I 4.<.G.k.n.w.Z n n :.V Z 4.g.j.j.[ q.].J.5X].w.w.1.:.r. .y.-X#X|.6.0.n.q.x.] W y.y.0.q.#X*Xy.F. .q.n.r.J.J.7.4.M.M.P.0.X.",
"S q.x.} q.q.L.$XM.|.:.r.} } f.F.F.0.} 4.} C u n # + n w n t n { y.y. .] ] 0.y.} q.+.C u { { ! x.x.F.q.F.y.q.[ G.).*X%Xn.0.#X-Xd.%X%X:X$X%X$X:X6X X$Xv.",
"F.q.Q S V n } J 4.J V L.*XG.F.q.F. .+.1 > 1 a X.@.+.P > s { T r.A I +.Q y.y. .F.I.l.q.H.x.x.l.X.{ Q  .{  .#X#X*X-XG.n.y.4.] W t z z [ j.:.V W w.n.} } ",
"3.4.E [ W [ b K :.g.G.q.0.k.m.G.G.y.H.L.t.I.F.Y a u a T +.) ] f T ! +.H.H.+.6.W p y.{ X.e.r.e.Z.x.+.P +.c.l.H.H.6.+.Y T +.T Y { y.1.+.w.r.y.y.] } x.e.",
").G.J.G.a.q.y.:.[ :.J G.G.G.G.y.G.L.H.<X#XF.{ { @.J.c.H.H.#XJ.y.l.Y F.&X.X&X-XI.e.] q.x.Y p w S X.%.A.A.@.%.t.Y P X.z.x.%.e.c.z.| C 6 B w.Z.F.5X#X .S ",
"0 :.:.r.n.r.q.q.q.).%X#XF.).F.q.j.[.6Xj.).-X5X&X#X*XL.w.F.G.G.#XH.e.1.t. .S 0.|.5X7X5XH.r.F.H.F.+.{ O.] W W t S +.0.4.Z.H.L.X.e.y.K.#X&XT.G.0.0.y.q.] ",
"n B W } ~ x.J.F.r.#X#XG.$Xy.4.[ [ <.:.0.:.1.J w.d.g.y.G.w.d.).G.y.S )  .0.x.w.F. . .w.G.w.0.j.H.J.&XF.4.x.y.U.*XL.|.F.| Q ] U.H.j.0.0.].#X&X|.G.F.-X8X",
"r.q.P ] 4.Y 4.S Q ] Z B v 4.n.:.[ [ } } W 4.+.} r.+.Z V I q.x.x.L.&X4X#Xj.y. .] w.H.].7X8XrX8X8X8X-XH.-X4X%XL.G.:.G.<X5X8X-XL.] +.J.y.P B C M.y.&X|.d.",
"t & e ] { e V } C e A e C 0 X O & $ > v I { 4.I s u P P 6.c.M.6.S 0.] B ] e.#XF.%X].].].g.[ w. .] t ] r.0.[ y.L.#X .$.[  .y.y.y.6.T n B ] Y w n Z 0.Y ",
"W { r.Z w $ w # O e I I S a Z I { 6.e.6.@.%.+.@.I.z.| U 1 8 s +.e.H.#X-X&XP.Y 6.q.S $.F.L.B S 0.0.e.0.+.] ]  .t O @ & : 6 B | ) a P h p A r _ O.O.{ n ",
"+.4.] Z C F.r.{ +.x.{ P a Z { O.T W h p s P U > +.O.Y A P ) @.P P { e.} a l.M.H.H.Z.+.]  .|.U.|.x.e.e. .K.-X-XF.w.y.$.+.+.{ P q.S.A.U.R.=X5XU.c.A.*.+.",
"0.y.:.d.4. .v 0 } O.y.e.+.+.H.{ ] t.H.t.K.A.=XU.$.$._ 6 8 : O # p a ; P u X.h a 8 + : C P +.H.y.#X-Xy.L.y.} [ j.L.G.d.L.y.x.G.G.y.H.e. .x.4.L.L.|.-XH.",
"[ 1.J.y.d.} W r.r.F.y.l.+.+.o.{ y.F.e.y.e.x.) 0.|  .H.U.x.x.{ F.%.! x.+.P > 1 h P z.%.{ ) l.C.&XF.F.y.0.0.G.J.G.).5XL.#X6X6X8X8X-X<Xx.q.0.0.c.x.H.H.J.",
"q.:XJ.].d.J :.d. .B q.] ! ] Z.#XH.{ 0.G.#XF.y. .]  .L.F.Y { &Xx.c.Z.X.A O.z.z.x.@.h A h O.$.j 6 { %.) y.U.x.0.U.y.]  .Z.H.+.f ) x.} n # # O i s # > { ",
").m.<.[ 0.0.B B { I B P B 0.y.+. .e Y ] p B ) w.+.] ) B w w w +.+.H.H.Z.c.x.e.O.I.I.x.x.+.B r ) O.A P _ _ ` x.Z.t.$.+.h 8 B _ O.x.U.K.@.+._ P p P O.t.",
"B y.B B t Z } ] ] n.0. .0.Z.w.0. .p e : : p 8 r p h Y +.{ H.x.A.Z.y.K.H.c.Z.K.Z.C.] u.F.| ]  .Y Y z.c.c.&.A.T P P &.T _ z.t.O.P { e.z.U.H.H.U.z.+.| A ",
"B $ O @ # & # 0 t S $.t.0. .| ] %.| A Y Y A { +.{ A A X.+.c.x.O.X.| $.T.Z.y.+. . .]  .A S t.F.T.T.A.L 8 ; ; L 8 y T c.S.&X=X&X*XI.T ) O.z.l.t.U.T.z.P.",
"O , p S B : & @ 0 0 B  .j.w. .$.$.F.I.F.Z.H.K.q.z.X.) T ) p P t.K.%.{ P Y C f ) #.t.$.F.=XU.-XI.x.%.%.@.U *.O...I.Y.I.c.t.{ | x.J.x.{  .P p ) 0.{ g  .",
"A +.v v e B S Y | 0.0.w.t.) S B w 6 w Y P C O.O.h U Y s w g U C ) e.+.I.U.K.Z.U.y.H.t.L.C.$.Y r 8 h O.*.@.O._ U U U P s : r C A A { P C w r w : S 0.| ",
" . . .} +.y.Y t.$.w.Z.+.w.F.Z.0.y.0.x.T.T.F.C.$.0.{ r ) %.{ _ p p A O.x.%.x.%.A.E.E.4Xx.P ; 8 _ X.e.O._ T s a i > y L s h P a z.) ) e.U B A B w C +.O.",
"x.e.0.+.x.x.e.w.0.w.F.w.y.K.0.| ] ] y.A.K.K.F.*X-XZ.F.x.) 0.t.x.Z.%.O.P P ) %.h _ f U O.*.O.A.I.x.O.P A T A.A.A.z.X.X.X.e.U.I.I.T.&X-X5X&Xx.H.A.0.x.H.",
"y.L.y.$.| ] j.0.t.F.{ S f 0 A  .0.#.C w 0 : 6 w %.t.$.Z.x.z.$.| ] $.H.x.O.X.) r ) r ; 8 ; U h h A.A.U.Y.R.=X4X=XY.R.R.R.Y.@.T n X.%.T f i A P a T x.%.",
"W ]  .q.0.0.] ) C p C S f S f r 0 S 0.] f p A _ B C C ) H.T.t.T.H.+.) A t.+.+.X.*.*.%.@.*.i 8 g j 8 % h g a y h L L T L g L a 8 : i p h P A %.=X&XA.x.",
"@ @ A  .] ) u.B ) A 0.| C p t 0 B A S { ] $.t.0.#.| $.$.] @ 6 ) 0.Z.Z.u.$.w.t.$.` y.Z.&.u.K.t.| d 6 6 j f ( | f > y h L U d y T U U L U @.Y.@.@.%.O.O.",
"o t S S ] w.w.K.y.t.| _ A A ) $.$.| A A ) y.U. . .0.#.$.$.| ) Y A $. .$.|  .$.u.Z.F.T.Z.#.d _ ) #.C.C.C.K.&.u.#.U ' L d y 7 ; ; y ; ; 8 ; ; + + ; ; r ",
"f B & % t B ) t > w ) B t # r | S C | w.U.Z.A | F.K.H.&XU.A.*.%.w.y._ y.#X7X&X&XZ.$.u.|  .u.A A ( A 9 % # 5 | ) U g ; 7 7 y L L y 7 9 j g y ; 8 8 y 6 ",
"S B  .u. .S ] V { $. .$. .$.T.H.Z.e.A. .0 ; B A S A h Y P ) | | _ w.t.u.F.#.) A ) ) t r 6 A 0.A j f ) A A ) 9 5 7 i ..&.&...L ' *.S.( ( U d g ; > # 5 ",
" .| @ & 6 0 6 : & 6 r d | C. .| e.&.y.u.+.C w : 5 6 A A i 7 h O.t.*.X.A ; % h _ t.` ` ) j f | #.$.A | u.&.) 6 r h ) _ j L #.&.%.z.u.t.A.&.| *.%.%.*.Y ",
"] B u.w.$.w.) ) +.y.K.0.A r U C U X._ ) { T %.%.t.S.I.t.x.&.x.I.A O.z.z.) t.x.| t.K.T.E.T.K.4XT.Y.4X7XE.U.K.T.U.K.K.A.A.S.I.Y.D.S.A.&.L $.Z._ $.%.%.x.",
"u.w.| r C $.t.0.$.y.{ r h X.| { { B _ %.I.E.%.$.*.U j U ` U d P h L L ' ..O.i A A h i ` A ( ( ) ) ( $.| L.T.Z.F.t.w.H.A.%.' L #.&.j.K.T.T.H.K.| { e.t.",
"t S A 1.| S ] | +.) Y Y f w A 8 h A ) h ; 6 i { | g r i > i y y L L ..U d y ; i j ` #.f f A d ) | Z.j.S.| A $.) u.C.{ c.I.O.O.U A ` ) j ) $.t.t.F.I.&X",
"] 1. .t ] $.] t t f 1.w.u.].w.#.| #.( r 9 h U 8 7 8 i d ....L y 5 5 5 9 y 7 y L y ; ; 8 9 j L g d 6 j ( ' ` ` ( f j ' ( $.t.C.u.C.` L 9 9 i d 6 C H.H.",
"V B t z 0 @ @ % 6 t r B u.) u.f r j r 5 d A U O.*.*.%.*.L L h L g j j ' ' *.D.D.z...z.S.S.u.S.#.( ` ( d y 5 5 9 f ` #.T.K.K.].T.u.) ( j j g r ) d % o ",
"o . o o % @ t ) A f ] S f % f ) ` r j ( d i 9 6 g U g L ....d d j L ` ( ..' ..d U g g i j L j #.#.( y j ` #.C.#.u.u.j j ) A B | S.S.C.S.&.` ` ( f i A ",
"@ @ @ @ % B A A ` 1.r 6 5 6 % 6 r 9 r d A ' ` ( ' U j y L g g g g 9 ( ' ( y ( ` U _ y g ( y d j ) &.C.&.#.j d y j d j u.) A ) ` f d L d g ` 7 % % 5 5 ",
"6 6 t S 1.) A ) A % % % % % % 6 % ( A ) $.#.| | _ g j j g y d d ' #.` d ' ` d ( _ L ` *.g ` y % @ 5 f d g ( #.#.C.u.#.d ) u.u.C.Z.| A ` _ ` C.#.L 5 5 ",
"B 1.] ] A ) r 6 5 5 6 6 f f f f S ) ` Z.&.9 % % 6 i j _ ..*.*.c.' #.` &.` 9 ` ` L y ` ' j 7 L #.S.Y.Y.S.C.S.E.E.u.#.C.S.u.] C.u.$.] ` ' ` A f ' u.( ( ",
"] S f 6 @ @ % 6 r 6 6 ) 1.u.` ) ) u.| j f f f 9 8 A *.C.C.Y.D.*.C.&.` j d C.C.u.@.S.*._ ` ..&.&.) f #.u.&.&.( 5 5 d #.C.S.S.| u.L.T.U.].&XF.&XK.S.S.S.",
"B J ] S f ) 1.) 1.) 1.u.` f r u.C.$.) ) A A ` $.&.*...j y L z.z.C.C.S.C.#.` % % ; ; % ; ; j ( j ( L y 5 9 y ( ` ( 6 5 % 9 | f 6 f ] w.] $.A ) ) w.S.S.",
"S f @ % f S f S ] 1.] u.1.f | ) f r 6 6 A u.u.) | ) 6 % 9 5 6 d ` #.f @ 5 6 d ( ( L ` #.&.&.u.` j ' ( A ` ' j 5 5 f j j A A | #.1.| S @ @ % % r r f A ",
"o . & B f f B t f z f . . 6 @ @ 6 5 r A j r 9 5 5 A ) f 6 f ) A A A A f j u.C.A ( ( ( C.#.9 d d 9 f A $.A h y ` ` ( ( u.#.( ` u.| ) C.Z.#.) j % 5 6 6 ",
"S ] 1.S ] f 0 0 0 % @ @ @ 0 f t f 9 d f 6 6 ( ( $.$.S.K.u.u.w.u.u.#.C.S.u.j ) ` ' ( ` y 5 5 d ( *.` &.' &.` ` ( f 9 5 % @ 5 r 9 6 f d 5 j j d f r r 6 "
};
