/* XPM */
static char *_af0f798af514fa3f498f2bea896aaa3emNO74p95msQKYnQ[] = {
/* columns rows colors chars-per-pixel */
"75 75 238 2 ",
"   c None",
".  c #702D02",
"X  c #733302",
"o  c #843C02",
"O  c #8C3D02",
"+  c #884101",
"@  c #9D4C02",
"#  c #9A4502",
"$  c #9E5105",
"%  c #8C5002",
"&  c #A64603",
"*  c #A44A02",
"=  c #AC4E02",
"-  c #B04D00",
";  c #AD5303",
":  c #A95B03",
">  c #B35402",
",  c #B55C04",
"<  c #BC5D03",
"1  c #BA5502",
"2  c #B66504",
"3  c #BA6404",
"4  c #BE6E05",
"5  c #B76B06",
"6  c #BB7007",
"7  c #C25D01",
"8  c #CB5E00",
"9  c #C46302",
"0  c #CB6501",
"q  c #C46B03",
"w  c #CB6C03",
"e  c #CB6B0C",
"r  c #D26400",
"t  c #D26D01",
"y  c #D86E03",
"u  c #C37504",
"i  c #CD7304",
"p  c #C67906",
"a  c #CD7B05",
"s  c #CC7D0D",
"d  c #D37502",
"f  c #DC7501",
"g  c #D37C04",
"h  c #DB7C03",
"j  c #D57A0C",
"k  c #C07C10",
"l  c #E07200",
"z  c #E27C01",
"x  c #EC7F00",
"c  c #BC9607",
"v  c #BA8B0C",
"b  c #CD8306",
"n  c #CB890C",
"m  c #D58405",
"M  c #DA8304",
"N  c #D58A06",
"B  c #DD8B05",
"V  c #DA870A",
"C  c #DB8D09",
"Z  c #D48108",
"A  c #DD9306",
"S  c #DE9907",
"D  c #D79008",
"F  c #D89607",
"G  c #CC8D16",
"H  c #D79817",
"J  c #D58C16",
"K  c #E48402",
"L  c #EB8401",
"P  c #E28D04",
"I  c #EA8C02",
"U  c #E78F0B",
"Y  c #F28A01",
"T  c #F08601",
"R  c #E39405",
"E  c #EC9404",
"W  c #E49B06",
"Q  c #ED9C05",
"!  c #E39C08",
"~  c #E7960C",
"^  c #F29504",
"/  c #F39C05",
"(  c #EC9D14",
")  c #D7A81E",
"_  c #D1B00F",
"`  c #E4A207",
"'  c #ECA306",
"]  c #EDAA07",
"[  c #E5A408",
"{  c #EAA509",
"}  c #E6A809",
"|  c #EBAC08",
" . c #E7A807",
".. c #F1A506",
"X. c #F1AC07",
"o. c #F9AC06",
"O. c #F2AD08",
"+. c #F8AD08",
"@. c #EFB207",
"#. c #E7B209",
"$. c #EDB309",
"%. c #EEBB09",
"&. c #E4BC0A",
"*. c #F2B307",
"=. c #FAB307",
"-. c #F3BA06",
";. c #F2B408",
":. c #F3BB09",
">. c #FBBB08",
",. c #FAB408",
"<. c #E4A510",
"1. c #EAAC14",
"2. c #E4AC17",
"3. c #F1AF13",
"4. c #EAB312",
"5. c #EEBB14",
"6. c #EFBF19",
"7. c #F3B718",
"8. c #DF942D",
"9. c #D5AD22",
"0. c #D7A421",
"q. c #DDAC2E",
"w. c #E0AF3E",
"e. c #EAB92A",
"r. c #F6C307",
"t. c #F3C109",
"y. c #F2C20A",
"u. c #F4C60A",
"i. c #F4C309",
"p. c #F9C50A",
"a. c #F5C90A",
"s. c #F6CA0A",
"d. c #F5CD0A",
"f. c #F4CB0A",
"g. c #FBCB0A",
"h. c #FACF05",
"j. c #F6D20B",
"k. c #F6D50B",
"l. c #F6D30B",
"z. c #FCD40B",
"x. c #F7DC0C",
"c. c #F7DA0C",
"v. c #F9DE0C",
"b. c #FADB0C",
"n. c #FCD105",
"m. c #EAC71C",
"M. c #F2C315",
"N. c #FACC13",
"B. c #F6CB1B",
"V. c #F8CE1B",
"C. c #F3CA16",
"Z. c #FBD314",
"A. c #F4D41B",
"S. c #F9D31D",
"D. c #F5DC1B",
"F. c #FCDC1D",
"G. c #FAE30D",
"H. c #FAEC0D",
"J. c #FFEC07",
"K. c #FFFB03",
"L. c #FDF20E",
"P. c #FFFB0C",
"I. c #FCE611",
"U. c #FDEA14",
"Y. c #FCE31C",
"T. c #FCED1A",
"R. c #F7E61C",
"E. c #FFFA13",
"W. c #FEF41C",
"Q. c #FFFB1B",
"!. c #FFF615",
"~. c #E7C228",
"^. c #F5CC21",
"/. c #F5CC2A",
"(. c #F3C427",
"). c #F9D422",
"_. c #F9DB25",
"`. c #FADD29",
"'. c #F7D629",
"]. c #E7C839",
"[. c #F3CD36",
"{. c #EFDE33",
"}. c #F5D433",
"|. c #F7DB34",
" X c #F8D93A",
".X c #FAE522",
"XX c #FBEA23",
"oX c #FBE32C",
"OX c #FAE72A",
"+X c #FDF324",
"@X c #FFFB25",
"#X c #FFF529",
"$X c #FFFD2B",
"%X c #FBE533",
"&X c #FCEA34",
"*X c #FCED3B",
"=X c #F4E639",
"-X c #FFFE33",
";X c #FCF33D",
":X c #FEFD3B",
">X c #FDF434",
",X c #E9BD50",
"<X c #EECC4A",
"1X c #F6D844",
"2X c #F3D64E",
"3X c #FAE34A",
"4X c #FAEC4E",
"5X c #F7E747",
"6X c #FDF544",
"7X c #FEFD44",
"8X c #FCF34B",
"9X c #FEFD4D",
"0X c #F8EC57",
"qX c #FBF452",
"wX c #FDFE54",
"eX c #FBF45D",
"rX c #FCFD5B",
"tX c #F7F152",
"yX c #F1D86A",
"uX c #FAF363",
"iX c #FCFE63",
"pX c #FAF56C",
"aX c #FCFD6B",
"sX c #F8ED75",
"dX c #FBFD74",
"fX c #FBFD7C",
"gX c #F9F275",
"hX c #F8EA6A",
"jX c #FCFF83",
"kX c #FCFC8B",
"lX c #FCF782",
"zX c #FBFE94",
"xX c #FCFE9C",
"cX c #FBF491",
"vX c #FDFFA1",
"bX c #FDFFB2",
"nX c #FBFEBD",
"mX c #FDFFE7",
/* pixels */
"                                                                                                                                                      ",
"                                                                                                                                                      ",
"                                                                                                                                                      ",
"                                                                                                                                                      ",
"                                                                                                                                                      ",
"                                                                                                                                                      ",
"                                                                                                                                                      ",
"                                                                                                                                                      ",
"                                                              g.        p.g.p.p.        >.                                                            ",
"                                                          g.z.z.g.;.R $.g.t.-.p.' B ] >.p.>.=.                                                        ",
"                                                        ;.z.d.a.a.:.Q #.i.:.:.i.' A O.:.;.;.;.R                                                       ",
"                                              b.b.z.$.{ *.s.a.a.a.$.S | u.t.i.:.W C | -.;.;.| P M ~ *.=.+.                                            ",
"                                            x.x.z.c.t. .} u.a.a.a.%.S } i.:.t.:.S D | :.-.;. .m m W *.X.+...                                          ",
"                                          ;.j.k.k.k.t.} } y.d.a.u.:.S } u.t.t.t.W D | -.;.;. .m m ' O.] X.' j                                         ",
"                                  G.G.s.;.;.f.k.k.k.f.} } %.d.a.a.%.S  .i.i.:.:.W B @.:.;.:.W Z m ] O.O.X.R d j E o...                                ",
"                                G.G.b.b.$.$.y.k.k.j.f.} ` %.d.a.a.:.! } t.t.t.:.W D @.-.;.;.W Z B O.O.] X.M a g Q ..o...                              ",
"                                H.b.x.c.%.| $.k.k.j.j.#.[ #.d.a.f.y.S ` t.t.t.%.R D ;.$.;.;.A m D O.O.] ' m d m ..' ....                              ",
"                              p.G.b.x.x.u.$.$.f.k.j.j.$.} } a.a.f.y.W ` t.t.t.:.S S ;.-.:.$.B m W O.X.O.W a a P ....' Q d                             ",
"                          g.p.:.d.G.c.x.j.$.| y.k.j.j.y.` } u.a.i.y.! ` i.t.:.:.S S ;.:.;.| N Z W *.@.O.A g a Q ' ....B t w !                         ",
"                      L.L.G.:.:.y.x.c.c.k.%.| %.k.j.j.y.} ` y.a.f.y.` ` t.t.:.%.A R :.;.:.] N m ] *.X.] m g m ....' ' d e d p.z.g.                    ",
"                    H.L.I.G.d.%.%.k.x.x.c.M.} #.l.l.l.f. .` %.f.i.i.[ S t.t.t.:.A ! :.;.:.` m B ] O.O.' m a A ' ' ..P i w A g.p.z.                    ",
"                    G.H.I.G.x.&.%.y.x.x.c.j.#.| a.k.d.f.| ` %.f.f.i.[ ` t.t.t.%.A S :.$.:.! m B *.O.*.W g a Q X...' g w i :.p.u.g.p.                  ",
"                    j.G.H.G.G.y.%.%.k.x.c.k.$.| %.k.l.l.#.` #.f.i.f.} S %.t.:.%.D W :.-.:.R m W *.X.*.B a m ' ' ' ! i q A p.p.p.p...                  ",
"                6XN.u.l.H.G.G.c.:.$.a.x.c.c.%.| $.l.d.d.%.` #.f.f.i.| ! :.t.i.;.A ` :.;.-.D m W X.O.] m a P X.....V i i ;.g.p.p.+.o...                ",
"              9XwX&Xr.u.G.G.G.x.u.$.:.x.c.c.a.| | f.j.j.y.` } y.i.f.| S :.t.i.$.C  .-.;.;.C m { *.*.{ g g Q X.' Q d w C p.p.p.:.' ..>.g.g.            ",
"              wX9X9XS.-.f.G.G.G.l.%.$.a.x.k.k.$.} u.l.j.y.` [ f.f.i.| S %.t.:.@.A  .:.-.| B B  .O.*.R a Z ' X.X.C i i ;.g.p.p.X.' +.p.p.g.            ",
"              wXwXwX6Xu.y.c.G.x.x.y.$.y.c.c.c.&.} $.l.f.f.} ` t.f.i.#.S %.i.i.$.C | -.;.| N B @.*.] B g A X.' ' g w N p.p.p.;.....:.p.p.g.            ",
"            !.7XwXwXiX%X%.y.G.G.G.l.$.$.d.c.c.y.| $.d.j.j.| ` t.i.f.$.! @.u.t.] B | :.:. .m R *.*.] m g W ] X.~ a i | g.p.p...Q :.p.p.p.>.^           ",
"            E.Q.9XrXrXrXV.-.j.G.G.x.y.$.y.c.k.j.| | a.l.d.$.` $.s.s.%.S %.i.i.] A #.:.:.` m W *.*.W Z m ' X...Z i V p.g.p.;.Q X.p.p.p.:...^           ",
"          :XQ.!.$XrXiXiX8Xy.:.c.x.G.f.#.$.j.c.k.%.} %.l.l.%.` $.s.u.#.N ` #.#.S m ] -.;.! M ` *.*.R g B X.X.Q a i { g.p.:.' ' >.p.p.:./ E / >.        ",
"        9XwX:XQ.Q.:XiXiXaX|.%.a.G.x.c.%.#.y.c.c.y.} $.l.j.%.N n F D p # 5 a p : + 6 a b 6 u  .-.*.B Z W X...B i Z i.p.p.X.Q ;.p.:.p...E Q *.p.>.      ",
"        9X9XwX:XW.@X7XiXaXuXC.:.k.x.x.f.$.$.k.k.f.#.} #.! n @ * a b u O : p u : o 2 6 5 o + 6 b N m m ] X.' g a { p.p.;.Q ..p.p.p.X.Q E *.>.:.>.      ",
"        9XwXwXwX:X@X$XrXiXdXtX%.y.x.x.c.$.$.a.c.f.b : p N m $ @ n H 0.v 9.].].) v H G 6 X + 5 2 $ X 6 { O.W a m i.p.p...Q ;.p.p.*.E ^ X.:.>.>.*.      ",
"        Z.6XrXrXrX:X@X>XiXdXdX}.%.f.x.x.u.#.$.#.S q # 2 F ) 9.m.qXaXrX@X7XaXiX-XQ.wXrX*X&.) G 6 o . @ 5 m m d ! g.p.*.Q X.p.p.;.Q E ..:.;.:.o.^       ",
"        z.Z.8XiXrXiX:X$X7XdXdXpXM.%.c.x.k.D 2 Z A b 5 9.0XdX9X@XwXaXiX@X:XiXrX-X@XrXrX-XP.-XwX{.c % : , @ X 5 p.g.:./ ..>.i.>.Q E ..;.>.:.X.^ ^       ",
"      J.z.g.N.8XiXiXiX-X>XrXdXfX5X@.a.k.| u & u 2.2X;X-XaXfXrXT.%X1X/.1.<.3.1.` <.(.}._.H.:XwX7XP.T.].6 o . @ P >.O.Q ;.i.>.X.E / ;.:.*.X.E I ^ o.    ",
"    H.P.H.j.s.d.tXdXaXrX:X:XaXjXfX/.` F W N 2 9.aXfXwX$X8X X(.A R X...M P / Q M g E I h Z 1.[.XXK.$X9X;Xc o 7 r i P +.:.:.+.E Q *.>.;.X.E L E O.>.+.  ",
"    H.E.L.H.z.s.j.0XdXdXrX:X7XdXkX5X3 3 S e.5X-XiXfX5X1.{ *.*.B R X.X.B B ..' M M Q E g d L L g F '.9X$XK.{.8.0 > > ' i.;./ E O.:.*.X.E E Q *.@.=.X.  ",
"      L.L.L.H.k.i.N.eXdXfXrX:XrXqXE.F > <XfXaX:X%XS.:.R R ;.-.R B X.X.B B ../ M M Q E g g L K i i z ( k.K.fXzXw.> 7 y Q ..E X.;.*.X.E I Q O.o.o.o.    ",
"      b.G.L.L.H.c.y.C.uXfXfXrXOXG.P.T.].9XjXpX6.R -.u.` B ] -.W B ] X.P B ' / m M E I d M I K w g x f w 2.jXzXwX].t r 7 M ..;.;.X.E I Q *.O.X...Y     ",
"      z.z.b.L.U.H.c.y.C.pXjXrXz.n.W.bXbX:X5XZ.-.P ] u.*.B ' :.' M ' *.A B ..Q M M E I i K L h w z x d 9 ~ 7.3X9XlXyXe = < Q -.X.E L ' O.O.X.Q I Y     ",
"      L.b.g.x.H.H.H.c.-.V.uXW.J.Z.cXmXmX1XQ h.s.W W i.-.P W :.' M ' X.R M Q Q m P / P i P E g i L z w a O.X.Q [.zXzX].< 0 d ' E I ..*.O.X.E L E o.    ",
"    H.E.L.b.g.j.G.H.H.k.%.D H.!.zXbXnXaXR.~ @.j.$.P ;.r.W P -.X.B W X.R M ..' g P Q M g L L i d L d 9 W *...E ..1XwX:X<Xy 0 9 I ' O.O.] I L Q X.o...  ",
"      P.L.H.H.g.s.x.H.H.[ 1 b kXmXnX5XW.@X5.Q u.i.R ' u.] B ] -.B R X.Q M ' Q g I Q h g E K w z L t i X.X.E ' O.Q 5.iXxX,X> = M *.o.' L I ..X.....    ",
"        L.L.H.H.k.u.x.c.] M H kXmXpXJ.I.@X+X! *.g. .R -.:.B ' -.R R X.R B ' Q m R E g h E h i K z q C ;.Q E O.O.E E 1XzXwXn 7 y Q / I E ..X.....      ",
"        z.H.L.H.H.x.i.W ] e.aX9X5X@X+XG.T.@XC.~ u.-.P ] -.R R *.R B *.R M Q Q g R E g M I g g L h w ' +.E ..;./ E ..X./.$XuXJ r w I Q X.....^ T       ",
"        g.z.b.G.H.H.i.9 m sXzX3X' Z.$XW.G.@X+X}  .g.W ~ i.' B *.' B ] ' M ' Q g E E g P I i h L w M ;./ E ;...E ..;...I 1XxXyX7 > R X...' I Y         ",
"          g.z.d.G.H.-.Q q.aXdXY.-.' .X@XU.I.@XA.R r.-.B -.@.B ] ] M ' ' m Q Q g E R i I K i K K w [ O.E X.O.E / ;...E ..7.gX9XH 8 h ' Q L T T         ",
"            z.g.g.p.] 7.fXiXM.b.G.;.{ XX@XI.T.@X|  .u.~ ' :.B ' ] B ' ' m ' Q g Q P g E M d I d g O.Q Q O.Q E O.O.E Q ;.X.7.9XsXy 0 K L L Y           ",
"            g.z.g.C 0 <XxX4X-.;.b.b.] 4.$XW.G.@X_.R -.] R -.W R *.B Q ' M Q E m Q K g I g h I i ! O.E X.O.^ O.O.^ Q O.O.E / 2XxXw.- t L T L           ",
"              g.z.a 7 5XiXI.G.i.| b.z.' 5.$XU.U.$X| ] -.A @.{ B @.A R ] m Q E g Q M M E d K K i ] / Q *.Q Q O.Q Q O.O.Q ' +.7.qXD.: 7 Y x             ",
"                ;.0 H wX^.*.G.G.p.] b.l.Q A.@XU.W..XW -.Q W *.B X.R R ' M Q R M Q g P P i K d N O.E O...E O...^ O.O.E ..;.X.Q u.E.b > z               ",
"                    [.9X+.Q +.b.G.u.| z.u.! XXW.I.@X4.{ @.A -.R ' ' B ' g I P a E g P M h K d { Q / O.E X.X.E O.O.Q ' ;...E E Q P.&.                  ",
"                      '.....' ' d.G.i.O.z.:.{ +XU.W..X! -.R Q B h M 0 M 7 d w 9 h < d w d h g O.Q O.Q Q O.E { O.Q ..O...E E ^ ^ g.                    ",
"                          o.o.Q Q t.b.i.| z.] 5.@XI.Q.1.P h d h 0 K 9 h 9 d w 9 d < d > w , h U Q ../ O./ ..O./ ..;.Q ^ ^ / ^                         ",
"                            Q ....Q ;.b.t.| d.' A.R.j.f.d K t K 0 h 0 h 9 d w 9 t < d > t > P z U z Q ..Q O.Q ..O.Q ^ ^ ^ ^                           ",
"                                ....Q ] Z.:.;.:.K d.p.z.R h t h w d 0 d 0 w w 9 w 7 9 < 9 q L z K z P K X.Q ..O./ E ^ ^                               ",
"                                  Q Q / ] d.' K K P b.g.u.d h t y d d g a V j i i 0 9 9 > h z K l I z I K Q O./ ^ ^ ^                                 ",
"                                      / Q K I K K K } j.g.S V U e.(.}.`.`.%X`.`.^.^.<.` s U z z K K K L L L z ^ ^                                     ",
"                                        z l y I K K f B.1XhX*X6X6X&X;X&X%X%X`.oX).oXB.F. X;X|.1.U z K K I f y z                                       ",
"                                        h f y f K ~ [.4XvXvXqX6X*X%X*X%X%XoX`.`.)._.V.V.6X7X7X9X*X(.U K f y l g                                       ",
"                                        K h d h 6.eXrXrXpXzXfX*X*X*X&XoX%X`._.`.).).S./.;X6X;X6X9XwX8X7.f d h I                                       ",
"                                      R E M d C +X-XrXrX9XfXkX8X;X&X&XoX%XoX'.`.).V.S.|.;X*X6X6X9X9X$XXXV h V E E                                     ",
"                                      W E B M d C .X-XwX9XqXlXuX*X&XoX%XoX`.)._.).V.^.%X&X;X;X6X6X#X.XN d M P Q {                                     ",
"                                      ' Q R B M d N XX$X9X6XeXpX*X&X%XoXoX`.).'.S.V./.&X&X*X;X6X+XD.M d M P R ..]                                     ",
"                                      ! X.Q R P h d N _.-X6X6XeX4X&XoXoX`._.).).V.V.`.OX&X&X&XXXC.M d M P R Q o.!                                     ",
"                                      m =.[ ! R P h d g m.$X>X*X4X&XoX`.`._.S.S.V.B.`.`.oXOXY.4.d d M P R Q { =.Z                                     ",
"                                        X.O.Q Q P B M d t <.XX#X&X%X.X.X_.F.S.V.V.V.S._.Y.N.! t g h B R W ' *.{                                       ",
"                                        q ;.+.[ W B B h d 0 g M..XXX.X_.F.S.V.V.M.N.Z.Z.] d w d M M R Q ' *.+.3                                       ",
"                                          q [ O.' Q R P M d 0 0 Z 4.S.F.F.F.S.N.V.>.` g 0 w d M B R Q ] O.W 3                                         ",
"                                            > q m g a 9 < > ; = & & 2 J C.V.V.4.Z , & & = ; > < q d g g q ;                                           ",
"                                                & & &                                             & & &                                               ",
"                                                                                                                                                      ",
"                                                                                                                                                      ",
"                                                                                                                                                      "
};
